<svg xmlns="http://www.w3.org/2000/svg" width="32" height="32" viewBox="0 0 32 32"><defs><mask id="c22ub" width="2" height="2" x="-1" y="-1"><path fill="#fff" d="M0 0h32v32H0z"/><path d="M32 16c0 8.822-7.177 16-16 16-2.951 0-5.828-.812-8.338-2.347l-6.96 2.32a.537.537 0 0 1-.551-.135.531.531 0 0 1-.118-.555l2.46-6.71A15.93 15.93 0 0 1 0 16C0 7.178 7.178 0 16 0c8.823 0 16 7.178 16 16zm-1.066 0c0-8.234-6.7-14.933-14.933-14.933C7.767 1.067 1.068 7.766 1.068 16c0 2.932.851 5.772 2.463 8.213a.533.533 0 0 1 .055.477l-2.17 5.92 6.146-2.048a.537.537 0 0 1 .454.055 14.883 14.883 0 0 0 7.985 2.316c8.234 0 14.933-6.7 14.933-14.933z"/></mask><filter id="c22ua" width="60" height="64" x="-14" y="-14" filterUnits="userSpaceOnUse"><feOffset dy="4" in="SourceGraphic" result="FeOffset1050Out"/><feGaussianBlur in="FeOffset1050Out" result="FeGaussianBlur1051Out" stdDeviation="1.6 1.6"/></filter></defs><g><g><path fill="#a65353" d="M25.133 20.318v2.563a2.228 2.228 0 0 1-.653 1.589 2.231 2.231 0 0 1-1.799.656 17.636 17.636 0 0 1-7.648-2.713 17.357 17.357 0 0 1-5.309-5.3A17.542 17.542 0 0 1 7.01 9.458a2.236 2.236 0 0 1 .512-1.65A2.234 2.234 0 0 1 9.247 7h2.575c1.127-.027 2.087.82 2.244 1.93.103.787.296 1.557.572 2.296a2.25 2.25 0 0 1-.506 2.369l-.8.798a13.188 13.188 0 0 0 4.394 4.384l.798-.797a2.263 2.263 0 0 1 2.375-.507c.738.275 1.51.467 2.294.57a2.248 2.248 0 0 1 1.94 2.274zm-1.066-.005V20.3a1.18 1.18 0 0 0-1.017-1.197 11.58 11.58 0 0 1-2.523-.628 1.187 1.187 0 0 0-1.25.265l-1.088 1.086a.533.533 0 0 1-.64.086 14.256 14.256 0 0 1-5.349-5.338.533.533 0 0 1 .087-.642l1.09-1.088a1.18 1.18 0 0 0 .264-1.24 11.504 11.504 0 0 1-.63-2.525 1.186 1.186 0 0 0-1.172-1.01H9.248a1.176 1.176 0 0 0-1.176 1.286 16.468 16.468 0 0 0 2.55 7.182 16.297 16.297 0 0 0 4.987 4.978 16.555 16.555 0 0 0 7.177 2.55 1.173 1.173 0 0 0 .938-.345c.222-.225.344-.521.343-.836z"/></g><g><g filter="url(#c22ua)"><path fill="none" d="M32 16c0 8.822-7.177 16-16 16-2.951 0-5.828-.812-8.338-2.347l-6.96 2.32a.537.537 0 0 1-.551-.135.531.531 0 0 1-.118-.555l2.46-6.71A15.93 15.93 0 0 1 0 16C0 7.178 7.178 0 16 0c8.823 0 16 7.178 16 16zm-1.066 0c0-8.234-6.7-14.933-14.933-14.933C7.767 1.067 1.068 7.766 1.068 16c0 2.932.851 5.772 2.463 8.213a.533.533 0 0 1 .055.477l-2.17 5.92 6.146-2.048a.537.537 0 0 1 .454.055 14.883 14.883 0 0 0 7.985 2.316c8.234 0 14.933-6.7 14.933-14.933z" mask="url(&quot;#c22ub&quot;)"/><path fill-opacity=".25" d="M32 16c0 8.822-7.177 16-16 16-2.951 0-5.828-.812-8.338-2.347l-6.96 2.32a.537.537 0 0 1-.551-.135.531.531 0 0 1-.118-.555l2.46-6.71A15.93 15.93 0 0 1 0 16C0 7.178 7.178 0 16 0c8.823 0 16 7.178 16 16zm-1.066 0c0-8.234-6.7-14.933-14.933-14.933C7.767 1.067 1.068 7.766 1.068 16c0 2.932.851 5.772 2.463 8.213a.533.533 0 0 1 .055.477l-2.17 5.92 6.146-2.048a.537.537 0 0 1 .454.055 14.883 14.883 0 0 0 7.985 2.316c8.234 0 14.933-6.7 14.933-14.933z"/></g><path fill="#a65353" d="M32 16c0 8.822-7.177 16-16 16-2.951 0-5.828-.812-8.338-2.347l-6.96 2.32a.537.537 0 0 1-.551-.135.531.531 0 0 1-.118-.555l2.46-6.71A15.93 15.93 0 0 1 0 16C0 7.178 7.178 0 16 0c8.823 0 16 7.178 16 16zm-1.066 0c0-8.234-6.7-14.933-14.933-14.933C7.767 1.067 1.068 7.766 1.068 16c0 2.932.851 5.772 2.463 8.213a.533.533 0 0 1 .055.477l-2.17 5.92 6.146-2.048a.537.537 0 0 1 .454.055 14.883 14.883 0 0 0 7.985 2.316c8.234 0 14.933-6.7 14.933-14.933z"/></g></g></svg>