<?xml version="1.0" encoding="UTF-8"?>
<svg id="SVGDoc" width="111" height="111" xmlns="http://www.w3.org/2000/svg" version="1.1" xmlns:xlink="http://www.w3.org/1999/xlink" xmlns:avocode="https://avocode.com/" viewBox="0 0 111 111"><defs><clipPath id="ClipPath1016"><path d="M0,5c0,-2.76142 2.23858,-5 5,-5h106v0v111v0h-106c-2.76142,0 -5,-2.23858 -5,-5z" fill="#ffffff"></path></clipPath><mask id="Mask1034" x="-1" y="-1" width="2" height="2"><rect width="111" height="111" x="0" y="0" fill="#ffffff"></rect><path d="M111,55.4996c0,30.6022 -24.8968,55.4994 -55.4991,55.4994c-10.2379,0 -20.2185,-2.814 -28.9245,-8.14l-24.14047,8.045c-0.19056,0.063 -0.38849,0.095 -0.58469,0.095c-0.49212,0 -0.97319,-0.196 -1.3283,-0.563c-0.49581,-0.508 -0.65494,-1.258 -0.40887,-1.924l8.53215,-23.2724c-5.65898,-8.8966 -8.64489,-19.1566 -8.64489,-29.7403c0,-30.6022 24.89707,-55.4993 55.49937,-55.4993c30.6023,0 55.4993,24.8973 55.4993,55.4996zM107.302,55.4996c0,-28.5618 -23.2378,-51.79935 -51.7996,-51.79935c-28.5618,0 -51.7993,23.23755 -51.7993,51.79935c0,10.1711 2.95425,20.0222 8.5449,28.4896c0.3237,0.4901 0.394,1.1043 0.1923,1.6556l-7.52944,20.5352l21.32104,-7.1063c0.1906,-0.0648 0.3868,-0.0962 0.5847,-0.0962c0.3478,0 0.692,0.0982 0.9916,0.2868c8.2861,5.2557 17.8635,8.0347 27.6942,8.0347c28.5618,0 51.7996,-23.2376 51.7996,-51.7994z" fill="#000000"></path></mask><filter id="Filter1038" width="139" height="143" x="-14" y="-14" filterUnits="userSpaceOnUse"><feOffset dx="0" dy="4" result="FeOffset1039Out" in="SourceGraphic"></feOffset><feGaussianBlur stdDeviation="1.6 1.6" result="FeGaussianBlur1040Out" in="FeOffset1039Out"></feGaussianBlur></filter></defs><desc>Generated with Avocode.</desc><g><g><title>Background</title><path d="M0,5c0,-2.76142 2.23858,-5 5,-5h106v0v111v0h-106c-2.76142,0 -5,-2.23858 -5,-5z" fill-opacity="0" fill="#ffffff" stroke-linejoin="miter" stroke-linecap="butt" stroke-opacity="1" stroke-miterlimit="20" stroke-width="0" clip-path="url(&quot;#ClipPath1016&quot;)"></path></g><g><title>Group</title><g><title>Group</title><g><title>Vector</title><path d="M87.1775,70.4761v8.8908c0.0074,2.0738 -0.7956,4.0347 -2.2644,5.5111c-1.4688,1.4818 -3.4243,2.2995 -5.5092,2.3069c-0.2478,0 -0.4884,-0.0093 -0.7289,-0.0314c-9.4388,-1.0231 -18.5998,-4.2774 -26.5306,-9.4091c-7.3593,-4.6674 -13.7307,-11.0277 -18.41473,-18.385c-5.15407,-7.9419 -8.41379,-17.129 -9.41646,-26.55452c-0.19035,-2.10161 0.44226,-4.12365 1.77793,-5.7238c1.33567,-1.59648 3.21354,-2.58073 5.28913,-2.76565c0.22937,-0.02233 0.46242,-0.03339 0.69548,-0.03339h8.92975c3.909,-0.09062 7.239,2.84348 7.7847,6.69873c0.3587,2.72684 1.0267,5.39813 1.9849,7.96043c1.0673,2.8342 0.3772,6.0605 -1.7575,8.2176l-2.7733,2.7676c3.7944,6.2049 9.0241,11.4236 15.242,15.2068l2.7693,-2.7619c2.1664,-2.1367 5.3965,-2.8212 8.238,-1.7593c2.5603,0.9545 5.239,1.6205 7.9548,1.9776c3.9329,0.5533 6.8152,3.9404 6.7291,7.8865zM83.4805,70.4594c0,-0.0147 0,-0.0314 -0.0002,-0.044c0.0518,-2.0775 -1.4651,-3.8626 -3.5279,-4.1531c-2.9766,-0.3922 -5.9274,-1.1249 -8.7522,-2.1775c-1.5022,-0.566 -3.1988,-0.1999 -4.3346,0.9195l-3.774,3.7646c-0.5883,0.5881 -1.4965,0.7085 -2.2199,0.2996c-7.7368,-4.3899 -14.1524,-10.7927 -18.5535,-18.5164c-0.4126,-0.7252 -0.2905,-1.6372 0.3016,-2.2256l3.7795,-3.774c1.1137,-1.123 1.4745,-2.8157 0.9158,-4.3049c-1.0582,-2.8267 -1.7925,-5.7719 -2.1866,-8.7578c-0.2868,-1.99797 -2.0294,-3.50383 -4.0645,-3.50383c-0.0128,0 -8.97607,0 -8.98717,0c-0.12032,0 -0.24042,0.00737 -0.36074,0.01843c-1.09525,0.09799 -2.08297,0.61418 -2.78603,1.45404c-0.70111,0.83791 -1.03411,1.89977 -0.93417,2.98764c0.93981,8.82072 3.99964,17.44522 8.84851,24.91552c4.4028,6.9133 10.382,12.8813 17.2991,17.2677c7.4646,4.8301 16.067,7.8863 24.8951,8.8428c0.0963,0.0074 0.2296,0.013 0.3627,0.013c1.0896,-0.0037 2.1183,-0.4329 2.8897,-1.2099c0.7713,-0.777 1.1932,-1.8055 1.1895,-2.8971z" fill="#ffffff" fill-opacity="1"></path></g></g></g><g><title>Vector</title><g filter="url(#Filter1038)"><path d="M111,55.4996c0,30.6022 -24.8968,55.4994 -55.4991,55.4994c-10.2379,0 -20.2185,-2.814 -28.9245,-8.14l-24.14047,8.045c-0.19056,0.063 -0.38849,0.095 -0.58469,0.095c-0.49212,0 -0.97319,-0.196 -1.3283,-0.563c-0.49581,-0.508 -0.65494,-1.258 -0.40887,-1.924l8.53215,-23.2724c-5.65898,-8.8966 -8.64489,-19.1566 -8.64489,-29.7403c0,-30.6022 24.89707,-55.4993 55.49937,-55.4993c30.6023,0 55.4993,24.8973 55.4993,55.4996zM107.302,55.4996c0,-28.5618 -23.2378,-51.79935 -51.7996,-51.79935c-28.5618,0 -51.7993,23.23755 -51.7993,51.79935c0,10.1711 2.95425,20.0222 8.5449,28.4896c0.3237,0.4901 0.394,1.1043 0.1923,1.6556l-7.52944,20.5352l21.32104,-7.1063c0.1906,-0.0648 0.3868,-0.0962 0.5847,-0.0962c0.3478,0 0.692,0.0982 0.9916,0.2868c8.2861,5.2557 17.8635,8.0347 27.6942,8.0347c28.5618,0 51.7996,-23.2376 51.7996,-51.7994z" fill="none" stroke-opacity="0.25" stroke-width="0" mask="url(&quot;#Mask1034&quot;)"></path><path d="M111,55.4996c0,30.6022 -24.8968,55.4994 -55.4991,55.4994c-10.2379,0 -20.2185,-2.814 -28.9245,-8.14l-24.14047,8.045c-0.19056,0.063 -0.38849,0.095 -0.58469,0.095c-0.49212,0 -0.97319,-0.196 -1.3283,-0.563c-0.49581,-0.508 -0.65494,-1.258 -0.40887,-1.924l8.53215,-23.2724c-5.65898,-8.8966 -8.64489,-19.1566 -8.64489,-29.7403c0,-30.6022 24.89707,-55.4993 55.49937,-55.4993c30.6023,0 55.4993,24.8973 55.4993,55.4996zM107.302,55.4996c0,-28.5618 -23.2378,-51.79935 -51.7996,-51.79935c-28.5618,0 -51.7993,23.23755 -51.7993,51.79935c0,10.1711 2.95425,20.0222 8.5449,28.4896c0.3237,0.4901 0.394,1.1043 0.1923,1.6556l-7.52944,20.5352l21.32104,-7.1063c0.1906,-0.0648 0.3868,-0.0962 0.5847,-0.0962c0.3478,0 0.692,0.0982 0.9916,0.2868c8.2861,5.2557 17.8635,8.0347 27.6942,8.0347c28.5618,0 51.7996,-23.2376 51.7996,-51.7994z" fill="#000000" fill-opacity="0.25"></path></g><path d="M111,55.4996c0,30.6022 -24.8968,55.4994 -55.4991,55.4994c-10.2379,0 -20.2185,-2.814 -28.9245,-8.14l-24.14047,8.045c-0.19056,0.063 -0.38849,0.095 -0.58469,0.095c-0.49212,0 -0.97319,-0.196 -1.3283,-0.563c-0.49581,-0.508 -0.65494,-1.258 -0.40887,-1.924l8.53215,-23.2724c-5.65898,-8.8966 -8.64489,-19.1566 -8.64489,-29.7403c0,-30.6022 24.89707,-55.4993 55.49937,-55.4993c30.6023,0 55.4993,24.8973 55.4993,55.4996zM107.302,55.4996c0,-28.5618 -23.2378,-51.79935 -51.7996,-51.79935c-28.5618,0 -51.7993,23.23755 -51.7993,51.79935c0,10.1711 2.95425,20.0222 8.5449,28.4896c0.3237,0.4901 0.394,1.1043 0.1923,1.6556l-7.52944,20.5352l21.32104,-7.1063c0.1906,-0.0648 0.3868,-0.0962 0.5847,-0.0962c0.3478,0 0.692,0.0982 0.9916,0.2868c8.2861,5.2557 17.8635,8.0347 27.6942,8.0347c28.5618,0 51.7996,-23.2376 51.7996,-51.7994z" fill="#ffffff" fill-opacity="1"></path></g></g></svg>