<?xml version="1.0" encoding="utf-8"?>
<!-- Generator: Adobe Illustrator 22.0.1, SVG Export Plug-In . SVG Version: 6.00 Build 0)  -->
<svg version="1.1" id="Capa_1" xmlns="http://www.w3.org/2000/svg" xmlns:xlink="http://www.w3.org/1999/xlink" x="0px" y="0px"
	 viewBox="0 0 463.9 463.9" style="enable-background:new 0 0 463.9 463.9;" xml:space="preserve">
<style type="text/css">
	.st0{fill:#FFFFFF;}
</style>
<g>
	<g>
		<g>
			<path class="st0" d="M463.8,118.4c0-0.2-0.1-0.4-0.1-0.6c0-0.1,0-0.1,0-0.2c-0.3-0.9-0.8-1.8-1.4-2.5c0-0.1,0-0.1-0.1-0.2
				s-0.3-0.2-0.4-0.3c-0.6-0.6-1.2-1.1-2-1.5c-0.2-0.1-0.5-0.3-0.7-0.4c-1-0.4-2-0.6-3.1-0.6H104c-0.9,0-1.7,0.2-2.6,0.5
				c-0.3,0.1-0.5,0.2-0.7,0.3c-0.5,0.2-1,0.5-1.5,0.9c-0.2,0.2-0.5,0.4-0.7,0.6c-0.4,0.4-0.8,0.8-1.1,1.3c-0.2,0.3-0.3,0.5-0.5,0.8
				c-0.1,0.2-0.2,0.3-0.3,0.4c-0.2,0.4-0.3,0.9-0.4,1.3c0,0.2-0.2,0.3-0.2,0.5l-40,224c0,0.2,0,0.3,0,0.5c-0.1,0.8-0.1,1.7,0.1,2.5
				c0,0.2,0,0.4,0.1,0.6c0,0.1,0,0.2,0,0.2c0.3,0.9,0.8,1.8,1.4,2.5c0,0.1,0.1,0.1,0.1,0.2s0.3,0.2,0.4,0.3c0.6,0.6,1.2,1.1,2,1.5
				c0.2,0.1,0.5,0.3,0.8,0.4c1,0.4,2,0.6,3,0.7h352c0.9,0,1.8-0.2,2.6-0.5c0.3-0.1,0.5-0.2,0.8-0.4c0.5-0.2,1-0.5,1.5-0.9
				c0.3-0.2,0.5-0.4,0.7-0.7c0.4-0.4,0.7-0.8,1-1.2c0.2-0.3,0.4-0.6,0.5-1c0.1-0.2,0.3-0.4,0.4-0.7c0.1-0.3,0.1-0.5,0.2-0.8
				c0.1-0.2,0.2-0.4,0.2-0.6l40-224c0-0.2,0-0.3,0-0.5C464,120,463.9,119.2,463.8,118.4z M430.7,128L241.2,261.3L121.9,128
				C121.9,128,430.7,128,430.7,128z M109,137.6l90.2,100.8L75.3,326.2L109,137.6z M89.1,336l120.8-85.6l24.1,26.9
				c2.7,3,7.3,3.5,10.6,1.2l44.9-31.6L394.2,336L89.1,336L89.1,336z M410.6,328.9L303,237.4l141.7-99.7L410.6,328.9z"/>
			<path class="st0" d="M8,136h64c4.4,0,8-3.6,8-8s-3.6-8-8-8H8c-4.4,0-8,3.6-8,8S3.6,136,8,136z"/>
			<path class="st0" d="M64,176c0-4.4-3.6-8-8-8H8c-4.4,0-8,3.6-8,8s3.6,8,8,8h48C60.4,184,64,180.4,64,176z"/>
			<path class="st0" d="M40,216H8c-4.4,0-8,3.6-8,8s3.6,8,8,8h32c4.4,0,8-3.6,8-8S44.4,216,40,216z"/>
			<path class="st0" d="M24,264H8c-4.4,0-8,3.6-8,8s3.6,8,8,8h16c4.4,0,8-3.6,8-8S28.4,264,24,264z"/>
		</g>
	</g>
</g>
</svg>
