<svg width="73" height="59" viewBox="0 0 73 59" fill="none" xmlns="http://www.w3.org/2000/svg">
<path d="M72.3658 15.994L57.7136 1.34165C56.8694 0.497445 55.4957 0.497445 54.6515 1.34165L48.1938 7.7993C47.3496 8.64336 47.3496 10.0171 48.1938 10.8614L48.911 11.5786L46.9149 13.5749L40.5137 11.9478C38.9381 11.547 37.2451 12.0125 36.0956 13.1621L30.7314 18.5263C30.5668 18.522 30.4018 18.533 30.2394 18.5612L26.1226 19.2793L24.089 17.2458L24.8062 16.5286C25.6502 15.6844 25.6502 14.3108 24.8062 13.4666L18.3484 7.0087C17.5042 6.1645 16.1306 6.16478 15.2864 7.0087L11.1583 11.1368C10.7407 11.5544 10.7407 12.2315 11.1583 12.649C11.5759 13.0666 12.253 13.0666 12.6705 12.649L16.7986 8.52089C16.809 8.51062 16.8258 8.51062 16.8362 8.52089L23.2937 14.9784C23.3041 14.9888 23.3041 15.0056 23.2937 15.016L8.64152 29.6684C8.63111 29.6786 8.61429 29.6786 8.60402 29.6684L2.14637 23.2107C2.13753 23.2019 2.13753 23.1821 2.14637 23.1732L9.37522 15.9444C9.79284 15.5267 9.79284 14.8496 9.37522 14.4322C8.95761 14.0146 8.28051 14.0146 7.86304 14.4322L0.634188 21.661C0.225273 22.0699 0 22.6137 0 23.192C0 23.7705 0.225273 24.3143 0.634188 24.723L7.09184 31.1807C7.51401 31.6029 8.06835 31.8139 8.62284 31.8139C9.17718 31.8139 9.73181 31.6029 10.1538 31.1807L10.871 30.4635L12.9046 32.4971L12.1866 36.6139C12.0471 37.4132 12.3065 38.233 12.8804 38.8069L17.7065 43.633C17.9152 43.8419 18.189 43.9463 18.4626 43.9463C18.7362 43.9463 19.0099 43.8419 19.2187 43.633C19.6363 43.2154 19.6363 42.5383 19.2187 42.1209L14.3925 37.2947C14.3106 37.2127 14.2735 37.0957 14.2935 36.9815L15.1069 32.3176C15.1666 31.9746 15.0558 31.624 14.8096 31.3777L12.3832 28.9515L22.5767 18.758L25.0031 21.1842C25.2052 21.3866 25.4781 21.4975 25.7592 21.4975C25.8202 21.4975 25.8818 21.4922 25.9429 21.4817L28.1635 21.0944L25.4706 23.7873C23.8134 25.4443 23.8134 28.1406 25.4706 29.7977C26.2733 30.6004 27.3406 31.0424 28.4758 31.0424C29.6111 31.0424 30.6784 30.6003 31.481 29.7977L35.7205 25.5581L51.3839 41.2314C52.2103 42.0578 52.2103 43.4028 51.3839 44.2292C50.5575 45.0555 49.2127 45.0555 48.3865 44.2292C48.3862 44.2289 48.386 44.2287 48.3857 44.2284L42.7369 38.5796C42.3193 38.162 41.6422 38.162 41.2248 38.5796C40.8071 38.9972 40.8071 39.6744 41.2248 40.0918L46.8743 45.7413L49.1005 47.9676C49.5008 48.3679 49.7213 48.9002 49.7213 49.4663C49.7213 50.0325 49.5008 50.5648 49.1005 50.9651C48.7001 51.3655 48.1679 51.5859 47.6017 51.5859C47.0355 51.5859 46.5033 51.3655 46.1029 50.9651L43.8766 48.7388L38.2272 43.0894C37.8096 42.6718 37.1325 42.6718 36.715 43.0894C36.2974 43.507 36.2974 44.1841 36.715 44.6016L42.3644 50.2509C42.7647 50.6513 42.9852 51.1835 42.9852 51.7497C42.9852 52.3159 42.7646 52.8483 42.3644 53.2485C41.538 54.0749 40.1931 54.0749 39.3667 53.2485L37.1449 51.0266C37.1433 51.025 37.1419 51.0236 37.1405 51.022C37.1402 51.0217 37.14 51.0216 37.1397 51.0213L33.7174 47.599C33.2998 47.1814 32.6227 47.1814 32.2053 47.599C31.7877 48.0166 31.7877 48.6937 32.2053 49.1112L35.6283 52.534C36.4547 53.3606 36.4547 54.7054 35.6283 55.5318C35.2279 55.9321 34.6957 56.1525 34.1295 56.1525C33.5633 56.1525 33.0311 55.9321 32.6307 55.5318L22.5147 45.4157C22.097 44.9981 21.4199 44.9981 21.0025 45.4157C20.5849 45.8333 20.5849 46.5104 21.0025 46.9279L31.1185 57.0439C31.9228 57.8482 32.9921 58.2912 34.1296 58.2912C35.2671 58.2912 36.3365 57.8482 37.1407 57.0439C37.6955 56.4892 38.0648 55.8183 38.2487 55.1089C39.9182 56.411 42.3424 56.2948 43.877 54.7604C44.4206 54.2168 44.799 53.5523 44.9874 52.8275C45.7318 53.4089 46.6427 53.7241 47.6023 53.7241C48.7398 53.7241 49.8091 53.2812 50.6134 52.4769C51.4177 51.6726 51.8607 50.6033 51.8607 49.4658C51.8607 48.5052 51.5448 47.5933 50.9623 46.8486C51.6716 46.6644 52.3424 46.2951 52.8969 45.7406C54.4483 44.1891 54.5495 41.7288 53.2016 40.058L54.7463 38.5133C55.1639 38.0957 55.1639 37.4188 54.7463 37.0012C54.3288 36.5835 53.6517 36.5835 53.2341 37.0012L51.7068 38.5283L39.9681 26.7894C41.4934 26.6848 42.9887 26.0517 44.152 24.8883C44.5696 24.4707 44.5696 23.7936 44.152 23.3761C43.7344 22.9585 43.0573 22.9585 42.6398 23.3761C41.8052 24.2108 40.6955 24.6704 39.5151 24.6704C38.6455 24.6704 37.8149 24.4202 37.1038 23.9553C37.1014 23.9537 37.099 23.9523 37.0967 23.9507C36.845 23.7854 36.6082 23.5938 36.3904 23.3761C36.1899 23.1755 35.9179 23.0629 35.6343 23.0629C35.3507 23.0629 35.0786 23.1755 34.8782 23.3761L29.9696 28.2846C29.5708 28.6834 29.0407 28.903 28.4767 28.903C27.9127 28.903 27.3826 28.6834 26.9838 28.2846C26.1605 27.4614 26.1605 26.122 26.9838 25.2988L37.6088 14.6738C38.2278 14.0549 39.1393 13.8043 39.9877 14.02L46.9785 15.7969C46.987 15.7991 46.9955 15.8001 47.004 15.8021C47.0238 15.8066 47.0437 15.8106 47.0636 15.814C47.0799 15.8168 47.0961 15.819 47.1124 15.821C47.1299 15.8232 47.1473 15.8249 47.165 15.8262C47.1834 15.8274 47.2016 15.8284 47.2199 15.8287C47.2273 15.8289 47.2346 15.8297 47.242 15.8297C47.2504 15.8297 47.2587 15.8287 47.2671 15.8286C47.2862 15.8282 47.3053 15.8273 47.3242 15.8259C47.3399 15.8247 47.3556 15.8229 47.3713 15.821C47.3894 15.8187 47.4074 15.8163 47.4252 15.8132C47.4424 15.8102 47.4594 15.8066 47.4765 15.8028C47.4922 15.7992 47.5077 15.7957 47.5231 15.7914C47.5422 15.7862 47.5612 15.7803 47.5802 15.774C47.5932 15.7697 47.606 15.7653 47.6187 15.7606C47.6389 15.753 47.6589 15.7446 47.6787 15.7356C47.69 15.7306 47.7012 15.7255 47.7122 15.7201C47.7319 15.7104 47.7513 15.7 47.7705 15.6891C47.7818 15.6827 47.793 15.6762 47.804 15.6693C47.8216 15.6585 47.8387 15.6471 47.8556 15.6353C47.8685 15.6263 47.8809 15.617 47.8933 15.6076C47.9074 15.5966 47.9214 15.5855 47.9352 15.5738C47.9499 15.5614 47.964 15.5484 47.978 15.5352C47.9847 15.5289 47.9918 15.5233 47.9984 15.5168L50.4246 13.0905L60.6181 23.284L58.1918 25.7103C57.9456 25.9565 57.8347 26.3071 57.8946 26.6501L58.5171 30.2197C58.6565 31.019 58.3971 31.8388 57.8234 32.4127L56.5302 33.7059C56.1126 34.1235 56.1126 34.8006 56.5302 35.2181C56.739 35.4268 57.0127 35.5313 57.2863 35.5313C57.5599 35.5313 57.8337 35.4269 58.0424 35.2181L59.3356 33.9249C60.4012 32.8593 60.8829 31.3368 60.6239 29.8523L60.0968 26.8298L62.1304 24.7962L62.8476 25.5133C63.2696 25.9354 63.8241 26.1465 64.3786 26.1465C64.9331 26.1465 65.4874 25.9355 65.9096 25.5133L72.3672 19.0557C72.7763 18.6468 73.0014 18.103 73.0014 17.5247C73 16.9465 72.7747 16.4027 72.3658 15.994ZM70.8535 17.5438L64.3958 24.0015C64.3854 24.0117 64.3685 24.0116 64.3583 24.0015L62.8851 22.5282L51.18 10.8231C51.1798 10.823 51.1796 10.8227 51.1794 10.8224C51.1793 10.8221 51.179 10.822 51.1787 10.8218L49.7062 9.34927C49.6957 9.33886 49.6957 9.32203 49.7062 9.31163L56.1638 2.85398C56.1682 2.84956 56.1755 2.84742 56.1826 2.84742C56.1898 2.84742 56.197 2.8497 56.2014 2.85398L70.8538 17.5063C70.8625 17.5151 70.8623 17.535 70.8535 17.5438Z" fill="white"/>
<path d="M61.3562 14.5037C60.1299 15.73 60.1299 17.7253 61.3562 18.9516C61.9504 19.5457 62.7401 19.8728 63.5803 19.8728C64.4205 19.8728 65.2103 19.5456 65.8042 18.9516C67.0306 17.7253 67.0306 15.73 65.8042 14.5037C64.5779 13.2774 62.5825 13.2774 61.3562 14.5037ZM64.2918 17.4393C64.1017 17.6293 63.8491 17.7341 63.5802 17.7341C63.3113 17.7341 63.0586 17.6295 62.8684 17.4393C62.476 17.0469 62.476 16.4084 62.8684 16.0159C63.0646 15.8197 63.3224 15.7216 63.5802 15.7216C63.8379 15.7216 64.0956 15.8197 64.2919 16.0159C64.6843 16.4084 64.6843 17.0469 64.2918 17.4393Z" fill="white"/>
<path d="M7.19579 24.619C7.78992 25.2131 8.57966 25.5402 9.41987 25.5402C10.2599 25.5402 11.0498 25.2129 11.6438 24.619C12.8701 23.3927 12.8701 21.3974 11.6438 20.1711C10.4173 18.9449 8.42211 18.9449 7.19594 20.1711C5.96962 21.3974 5.96962 23.3927 7.19579 24.619ZM8.70812 21.6833C8.90431 21.4871 9.16209 21.389 9.41987 21.389C9.67765 21.389 9.93529 21.4871 10.1316 21.6833C10.524 22.0757 10.524 22.7141 10.1316 23.1066C9.94156 23.2967 9.68877 23.4015 9.41987 23.4015C9.15097 23.4015 8.89832 23.2968 8.70812 23.1066C8.31575 22.7143 8.31575 22.0758 8.70812 21.6833Z" fill="white"/>
</svg>
