<svg width="41" height="55" viewBox="0 0 41 55" fill="none" xmlns="http://www.w3.org/2000/svg">
<path d="M20.5 0C9.29682 0 0.182739 9.11408 0.182739 20.3173C0.182739 24.0054 1.8368 27.9721 1.90612 28.1394C2.44034 29.4074 3.49445 31.377 4.25456 32.5315L18.185 53.6387C18.7551 54.504 19.5989 55 20.5 55C21.4011 55 22.2449 54.504 22.815 53.6399L36.7466 32.5315C37.5079 31.377 38.5608 29.4074 39.0951 28.1394C39.1644 27.9733 40.8173 24.0066 40.8173 20.3173C40.8173 9.11408 31.7032 0 20.5 0ZM36.8912 27.212C36.4144 28.3485 35.4332 30.1807 34.7508 31.2157L20.8191 52.3241C20.5442 52.7412 20.457 52.7412 20.1821 52.3241L6.25043 31.2157C5.56801 30.1807 4.5868 28.3473 4.10994 27.2108C4.08963 27.1618 2.573 23.5106 2.573 20.3173C2.573 10.4323 10.6151 2.39026 20.5 2.39026C30.3849 2.39026 38.427 10.4323 38.427 20.3173C38.427 23.5154 36.9068 27.1761 36.8912 27.212Z" fill="white"/>
<path d="M20.5 9.5625C14.5686 9.5625 9.7438 14.3884 9.7438 20.3187C9.7438 26.2489 14.5686 31.0749 20.5 31.0749C26.4314 31.0749 31.2562 26.2489 31.2562 20.3187C31.2562 14.3884 26.4314 9.5625 20.5 9.5625ZM20.5 28.6846C15.888 28.6846 12.1341 24.9319 12.1341 20.3187C12.1341 15.7055 15.888 11.9528 20.5 11.9528C25.112 11.9528 28.8659 15.7055 28.8659 20.3187C28.8659 24.9319 25.112 28.6846 20.5 28.6846Z" fill="white"/>
</svg>
