<svg xmlns="http://www.w3.org/2000/svg" width="29" height="29" viewBox="0 0 29 29"><defs><linearGradient id="7srka" x1="4.25" x2="24.75" y1="24.75" y2="4.25" gradientUnits="userSpaceOnUse"><stop offset="0" stop-color="#ffc107"/><stop offset=".51" stop-color="#f44336"/><stop offset=".99" stop-color="#9c27b0"/></linearGradient><linearGradient id="7srkb" x1="9.2" x2="19.8" y1="19.8" y2="9.2" gradientUnits="userSpaceOnUse"><stop offset="0" stop-color="#ffc107"/><stop offset=".51" stop-color="#f44336"/><stop offset=".99" stop-color="#9c27b0"/></linearGradient></defs><g><g><path fill="url(#7srka)" d="M19.938 0A9.063 9.063 0 0 1 29 9.063v10.874A9.063 9.063 0 0 1 19.937 29H9.063A9.063 9.063 0 0 1 0 19.937V9.063A9.063 9.063 0 0 1 9.063 0zm6.343 9.063a6.35 6.35 0 0 0-6.344-6.344H9.063A6.35 6.35 0 0 0 2.72 9.063v10.874a6.35 6.35 0 0 0 6.344 6.344h10.874a6.35 6.35 0 0 0 6.344-6.343z"/></g><g><path fill="url(#7srkb)" d="M22 14.5a7.5 7.5 0 1 1-15 0 7.5 7.5 0 0 1 15 0zm-2.813 0A4.693 4.693 0 0 0 14.5 9.812 4.693 4.693 0 0 0 9.812 14.5a4.694 4.694 0 0 0 4.688 4.688 4.694 4.694 0 0 0 4.688-4.688z"/></g></g></svg>