<svg width="748" height="544" viewBox="0 0 748 544" fill="none" xmlns="http://www.w3.org/2000/svg">
<g filter="url(#filter0_d)">
<path d="M720.029 452.21C717.023 454.356 714.16 456.646 711.154 458.793C703.71 464.088 695.55 466.95 686.246 467.093C674.937 467.093 668.066 461.369 666.205 450.206C665.919 448.346 665.489 446.342 665.06 443.766C663.199 444.911 661.767 445.913 660.336 446.771C653.894 450.779 647.166 453.927 639.15 452.639C634.426 451.78 631.42 449.204 631.277 444.482C631.133 441.047 631.849 437.469 632.279 433.891C632.565 432.174 632.994 430.6 633.424 428.883C633.137 428.74 632.708 428.453 632.422 428.31C630.847 430.171 629.416 432.031 627.698 433.891C622.258 439.616 617.105 445.483 611.379 450.922C607.228 454.929 594.058 455.501 589.334 452.066C587.616 450.922 586.9 448.489 585.755 446.485C585.326 445.627 585.326 444.625 584.896 443.051C582.749 445.627 581.031 447.63 579.17 449.634C571.583 457.648 562.708 461.941 551.543 458.363C544.671 456.074 538.945 452.353 536.369 444.339C534.508 445.913 532.933 447.344 531.359 448.632C525.633 453.211 519.907 457.934 514.038 462.37C512.606 463.515 510.459 464.231 508.598 464.374C501.584 464.517 494.426 464.088 488.414 459.938C485.121 457.648 483.117 454.213 482.831 450.206C482.688 446.485 483.117 442.764 483.26 439.043C483.26 438.471 483.26 437.899 483.26 436.754C481.4 438.328 479.825 439.616 478.537 440.904C473.24 446.056 467.228 449.347 459.927 450.492C458.925 450.635 457.78 451.923 457.351 452.782C455.346 457.218 453.772 461.941 451.625 466.378C446.042 477.54 433.015 482.549 421.993 478.113C421.42 477.826 420.848 477.54 419.702 476.825C421.277 475.966 422.565 475.537 423.567 474.821C428.434 471.53 432.299 467.093 433.588 461.369C436.308 449.204 438.455 436.754 441.318 424.589C442.892 417.72 445.183 410.994 447.76 404.268C451.052 395.538 458.066 391.674 466.942 390.958C471.522 390.529 476.246 390.1 480.684 392.246C481.686 392.676 482.402 393.821 483.26 394.679C482.258 394.966 481.256 395.395 480.254 395.538C476.532 395.967 473.956 398.4 472.524 401.405C470.091 406.701 468.087 412.139 466.369 417.577C464.651 423.158 463.506 429.026 462.218 434.893C462.074 435.466 462.218 436.181 462.218 437.755C465.51 435.323 468.516 433.605 471.236 431.315C477.964 425.591 484.119 419.294 488.271 411.423C490.275 407.559 491.993 403.266 492.708 398.973C494.283 389.527 487.698 383.517 478.966 382.658C467.657 381.513 457.494 385.663 448.332 391.674C434.304 400.69 424.426 413.14 419.702 429.455C419.416 430.743 419.13 432.031 418.987 433.176C418.7 439.473 422.279 442.478 428.578 441.19C430.009 440.904 432.013 438.9 432.872 441.19C433.731 443.48 431.154 444.195 429.436 444.911C420.275 449.204 406.819 445.054 402.381 436.038C399.518 430.314 400.234 424.017 402.238 418.149C405.96 407.273 413.261 399.116 421.993 392.103C435.592 381.084 451.052 374.93 468.516 374.787C478.393 374.787 487.698 376.934 495.571 383.517C503.301 389.957 504.16 398.829 501.584 406.844C501.297 407.845 501.011 408.847 501.297 410.278C503.015 409.277 504.733 408.275 506.451 407.273C512.749 403.552 519.477 401.119 526.778 400.833C539.947 400.261 544.528 409.42 540.234 420.725C537.8 427.022 533.649 432.031 528.352 435.895C522.913 439.759 516.901 442.764 511.175 446.342C510.029 447.058 508.598 448.203 508.455 449.204C508.168 450.492 509.17 452.066 509.743 453.498C511.031 453.068 512.606 452.925 513.751 452.066C520.766 446.915 527.78 441.619 534.651 436.181C536.369 434.75 538.087 432.89 538.945 430.886C543.669 420.296 549.682 410.421 558.7 402.837C566.573 396.253 575.448 392.962 585.469 397.112C588.761 398.543 591.624 400.976 594.344 403.266C596.062 404.697 596.491 406.844 594.487 408.704C592.483 410.708 590.765 410.994 588.618 408.704C586.471 406.557 584.753 406.557 582.892 408.704C578.168 414.715 573.158 420.582 568.864 426.879C566.144 430.743 564.283 435.323 562.422 439.759C561.849 441.047 562.565 442.907 562.565 444.482C564.14 444.339 566.287 444.768 567.289 443.909C571.87 439.902 576.164 435.609 580.459 431.315C582.606 429.312 584.467 427.022 586.471 424.732C587.902 423.158 589.477 423.301 591.481 424.16C598.066 426.736 600.786 431.316 599.641 438.328C599.354 440.331 599.354 442.335 599.354 444.195C599.354 446.628 600.643 447.201 602.647 446.056C604.937 444.768 607.371 443.337 609.232 441.619C614.814 436.181 620.111 430.457 625.551 424.876C626.982 423.444 626.409 422.586 624.835 421.727C622.544 420.439 620.111 419.151 618.25 417.291C612.954 412.139 611.951 402.98 615.816 396.11C621.399 385.95 630.274 379.653 641.011 375.789C642.442 375.216 644.16 375.216 645.735 375.073C651.317 374.93 654.324 377.792 654.18 383.23C654.037 391.96 651.031 399.831 646.88 407.416C645.448 410.135 643.73 412.711 642.013 415.144C640.868 416.861 641.154 417.863 642.872 418.865C645.735 420.296 648.454 421.87 651.174 423.444C653.465 424.876 654.324 427.022 653.608 429.598C652.749 432.89 651.604 436.181 650.602 439.473C650.315 440.475 650.602 441.619 650.602 442.764C651.747 442.621 653.035 442.907 653.894 442.335C657.33 440.188 660.765 438.042 663.914 435.609C664.773 435.036 665.203 433.605 665.203 432.46C666.062 420.439 668.209 408.561 672.503 397.255C677.37 384.518 683.812 372.64 694.548 363.767C700.274 359.045 711.154 356.755 718.741 361.621C721.317 363.338 722.749 365.485 722.892 368.633C723.321 375.932 721.031 382.372 717.739 388.669C711.297 401.119 701.706 411.28 691.685 421.012C690.827 421.87 689.968 422.872 689.681 423.874C687.534 432.604 685.101 441.19 685.387 450.349C685.673 460.796 690.54 463.802 699.988 459.365C702.708 458.077 705.285 456.217 707.861 454.786C710.152 453.498 712.585 452.353 715.019 451.351C716.307 450.922 717.882 451.208 719.313 451.208C719.886 451.494 719.886 451.923 720.029 452.21ZM645.735 384.518C645.591 383.946 645.305 382.944 644.876 381.942C643.874 382.515 642.585 382.801 642.013 383.66C638.577 388.096 634.998 392.389 632.279 397.255C629.702 401.692 628.557 406.701 632.135 411.423C633.281 412.854 634.283 413.14 635.285 411.28C636.144 409.849 637.002 408.561 637.718 407.273C641.44 400.261 645.162 393.248 645.735 384.518ZM694.262 408.99C694.548 409.133 694.692 409.277 694.978 409.42C695.694 408.847 696.553 408.275 696.982 407.559C701.992 399.545 707.002 391.531 711.583 383.374C713.158 380.511 713.73 377.077 714.446 373.785C714.732 372.64 713.73 371.352 713.158 370.207C712.156 370.923 710.867 371.352 710.438 372.354C706 381.513 701.849 390.815 697.554 400.117C696.266 402.837 695.264 405.985 694.262 408.99ZM513.608 431.315C514.324 431.029 514.753 431.029 515.04 430.886C520.336 426.02 525.633 421.298 530.786 416.146C532.074 414.858 534.794 412.568 532.79 410.708C530.643 408.704 527.923 410.994 526.492 412.854C522.34 418.149 518.332 423.731 514.324 429.169C513.894 429.598 513.894 430.314 513.608 431.315Z" fill="black"/>
<path d="M295.306 442.621C293.874 441.763 291.584 440.761 290.009 439.187C287.576 436.897 289.15 434.321 290.439 431.888C291.727 429.598 293.015 427.165 293.874 424.732C294.304 423.588 294.161 421.727 293.445 421.012C292.729 420.296 290.582 419.724 289.723 420.296C287.576 421.584 285.285 423.015 283.997 425.019C277.269 434.607 273.547 445.34 272.975 457.075C272.688 463.515 275.838 465.805 281.993 463.802C290.582 460.939 297.167 455.215 303.752 449.347C304.324 448.775 304.611 447.773 304.611 446.915C305.469 432.031 308.332 417.577 312.627 403.409C314.917 395.967 317.351 388.669 320.214 381.37C322.934 374.501 326.799 368.204 332.811 363.481C337.821 359.617 348.844 358.615 354.283 361.764C356.001 362.766 356.287 364.483 354.713 365.485C349.702 368.633 347.412 373.642 344.979 378.508C342.831 382.944 340.97 387.667 339.396 392.389C336.533 400.69 333.813 409.133 330.95 417.577C330.664 418.292 330.807 419.008 330.664 420.439C335.531 416.432 339.825 412.568 344.406 409.133C348.987 405.699 353.997 403.409 360.009 403.552C358.864 404.268 357.719 404.983 356.717 405.699C347.985 411.709 341.4 419.867 335.96 428.739C333.097 433.319 333.24 433.462 338.823 433.605C350.275 433.748 358.864 438.757 364.017 449.204C366.308 453.784 367.882 458.65 370.459 463.086C372.177 465.948 374.897 468.095 377.187 470.671C377.76 471.243 378.189 471.959 378.619 472.531C377.903 472.818 377.044 473.247 376.328 473.247C367.882 472.388 361.584 467.809 356.574 461.369C353.854 457.934 351.707 453.927 350.275 449.777C348.128 444.052 343.976 441.333 338.537 440.188C329.375 438.328 329.375 438.328 324.938 448.489C322.934 453.211 321.216 458.077 319.641 462.8C318.496 465.948 316.921 466.95 313.772 466.234C312.77 465.948 311.625 465.805 310.623 465.519C305.899 464.231 304.754 462.657 304.611 457.791C304.611 456.789 303.895 455.787 303.608 454.642C302.75 455.215 301.748 455.644 301.032 456.217C296.022 460.367 291.155 464.803 285.858 468.524C279.559 472.961 273.261 470.242 267.105 467.522C266.247 467.093 265.531 466.664 264.815 466.091C263.24 465.09 261.666 465.233 260.807 466.807C256.512 474.106 249.641 474.821 242.341 474.249C237.617 473.819 235.326 471.816 233.895 467.236C233.609 466.234 232.893 465.233 232.463 464.231C231.605 465.09 230.459 465.662 229.744 466.664C225.163 472.818 219.866 477.826 212.136 479.114C204.693 480.259 198.108 478.256 192.668 472.817C189.948 470.241 189.519 470.098 186.942 472.817C179.928 479.83 171.339 482.406 161.748 480.975C156.881 480.259 153.302 477.254 151.155 472.531C147.862 465.233 147.719 457.648 148.006 449.92C148.006 448.918 147.862 447.916 147.719 446.056C146.288 447.344 145.429 447.773 144.856 448.632C139.273 457.075 130.971 462.227 122.382 466.807C113.363 471.53 103.629 474.678 93.7521 476.825C80.5824 479.687 68.1284 478.542 57.2491 469.812C54.5293 467.666 52.6683 466.807 48.9464 467.952C44.652 469.383 39.9281 469.24 35.3473 466.378C45.654 461.798 48.0875 452.782 49.9485 443.337C51.9526 433.462 53.8135 423.444 55.8176 413.427C55.8176 413.14 55.8176 412.854 55.5313 411.709C49.519 415.573 45.7972 421.012 41.5027 425.877C36.9219 431.029 34.3452 437.04 33.2001 443.766C29.7645 443.623 26.472 439.187 26.0426 434.893C25.47 429.169 27.6172 424.16 30.4802 419.58C40.6438 403.838 54.3861 392.246 71.1345 383.946C80.1529 379.51 89.7439 376.79 100.051 377.935C103.772 378.365 107.638 379.653 110.93 381.227C115.511 383.373 116.513 387.953 113.22 391.817C110.214 395.252 106.635 398.257 103.343 401.405C102.627 402.121 101.912 402.55 101.339 403.838C102.198 403.838 103.057 404.125 103.916 403.981C114.795 402.55 125.531 402.264 135.981 406.557C142.852 409.42 147.576 414.428 149.723 421.727C149.866 422.443 150.725 422.872 151.298 423.588C151.727 423.015 152.443 422.443 152.586 421.87C155.163 412.425 159.314 403.695 164.611 395.395C168.046 390.243 171.911 385.52 176.922 382.085C182.504 378.365 188.517 377.649 194.672 380.225C198.537 381.799 200.255 384.948 200.255 389.098C200.255 395.109 198.251 400.404 195.817 405.699C190.234 417.148 181.789 426.593 172.913 435.466C170.909 437.469 169.192 439.473 168.905 442.335C167.903 450.063 166.329 457.648 166.042 465.376C165.756 474.678 170.48 476.968 178.496 472.245C179.355 471.816 180.214 471.243 181.073 470.671C185.654 467.952 188.946 465.233 189.232 458.793C189.519 450.349 194.529 443.051 199.253 436.038C203.261 430.171 207.985 425.162 213.997 421.298C221.584 416.289 234.468 417.863 240.337 424.876C240.766 425.305 241.339 425.877 241.339 426.307C241.339 427.738 241.339 429.455 240.623 430.457C239.478 432.031 237.903 431.459 236.615 430.171C233.609 427.595 232.893 427.452 230.173 430.314C222.014 438.9 215.572 448.632 211.277 459.651C210.705 461.226 211.421 463.229 211.421 464.946C213.281 464.803 215.572 465.233 216.86 464.374C220.296 461.941 223.302 458.936 226.165 455.93C229.028 452.925 231.605 449.777 234.181 446.485C235.47 445.054 236.615 444.911 238.333 445.77C245.061 449.061 245.919 450.349 245.49 457.934C245.347 460.224 245.49 462.514 245.347 464.803C245.204 467.236 246.921 468.095 248.639 467.093C251.645 465.233 254.365 462.943 256.942 460.653C257.371 460.367 257.228 459.079 256.942 458.506C250.93 445.913 253.793 434.178 261.952 424.017C267.678 416.861 275.408 412.139 285.285 412.997C289.723 413.427 293.588 414.858 296.88 418.006C300.316 421.441 300.602 425.448 299.314 429.741C297.883 434.607 296.594 438.328 295.306 442.621ZM89.6007 438.757C89.0281 439.187 88.885 439.473 88.7419 439.473C81.7276 438.757 75.8584 441.476 70.2756 445.054C67.8421 446.628 66.1243 448.775 65.2654 451.637C64.5497 453.927 63.4045 456.217 62.1161 458.22C60.8278 460.224 61.4004 461.512 63.4045 461.941C66.4106 462.514 69.7031 463.086 72.7092 462.943C81.5844 462.514 90.0302 460.224 98.3328 457.218C113.507 451.494 127.678 444.195 138.128 431.172C142.566 425.734 144.141 419.867 140.132 415.287C138.271 413.14 135.695 411.423 132.975 410.278C126.247 407.273 119.089 407.702 112.075 408.704C102.341 410.135 93.3226 413.856 84.3042 417.434C77.5762 420.01 71.9934 423.301 71.8503 431.602C71.8503 431.745 71.7071 432.031 71.7071 432.174C71.1345 434.035 71.7071 435.036 73.8544 434.893C76.1447 434.893 78.4351 434.607 80.5824 434.893C83.4454 435.609 87.0241 435.895 89.6007 438.757ZM96.7582 384.518C89.7439 384.518 86.1652 389.813 82.4433 394.536C78.5783 399.402 77.7194 405.699 76.2879 411.566C76.1448 412.139 76.2879 413.14 76.7173 413.284C77.1468 413.57 78.0057 413.284 78.5783 412.997C81.155 411.423 83.7316 409.992 86.022 408.275C91.3185 404.125 96.615 399.831 101.768 395.395C103.057 394.25 104.059 392.103 104.345 390.243C104.631 386.522 101.912 384.518 96.7582 384.518ZM172.484 428.883C172.77 429.026 173.2 429.312 173.486 429.455C174.202 428.739 175.061 428.167 175.633 427.308C181.359 419.58 186.799 411.566 190.521 402.693C191.952 399.259 192.382 395.538 192.954 391.96C193.097 391.245 192.095 389.527 191.523 389.527C190.521 389.384 189.089 390.1 188.66 390.815C186.942 393.391 185.367 396.11 184.079 398.973C181.646 404.268 179.355 409.706 177.208 415.287C175.49 419.58 174.059 424.303 172.484 428.883Z" fill="black"/>
<path d="M642.156 492.28C623.69 491.279 605.08 489.991 586.614 489.418C551.972 488.273 517.473 489.132 483.26 494.713C470.52 496.86 457.923 499.722 446.614 506.592C443.608 508.452 441.031 511.028 438.312 513.175C437.596 513.604 436.88 514.033 436.164 514.463C435.735 513.604 435.162 512.888 435.019 511.887C434.59 508.452 435.878 505.447 437.739 502.728C442.606 495.572 449.907 491.565 457.35 488.13C473.097 480.689 489.988 477.111 507.023 474.392C544.099 468.238 581.604 465.948 619.109 468.095C638.148 469.097 657.33 471.1 676.368 472.961C688.822 474.105 700.704 472.961 711.869 466.377C713.301 465.519 715.448 463.658 716.737 465.805C717.309 466.664 716.164 469.097 715.305 470.385C710.438 476.968 703.853 480.975 696.553 484.409C680.663 491.851 663.915 492.996 646.88 492.71C645.305 492.424 643.731 492.424 642.156 492.28C642.156 492.28 642.156 492.424 642.156 492.28Z" fill="black"/>
</g>
<g filter="url(#filter1_d)">
<path d="M345.981 193.895C347.412 194.468 348.987 195.613 350.418 195.613C366.165 195.899 381.911 194.754 397.085 190.318C402.381 188.744 404.672 190.747 404.385 196.328C403.956 202.911 401.379 208.636 397.657 213.931C384.345 233.251 365.592 241.694 342.402 241.265C332.095 241.122 322.218 238.975 312.627 235.397C312.197 235.254 311.768 235.111 311.195 235.111C310.337 234.968 309.764 235.97 310.193 236.685C310.48 237.115 310.909 237.687 311.339 237.973C316.349 241.981 322.504 243.698 328.516 244.986C355.428 250.138 379.477 244.27 399.232 224.664C416.267 207.92 423.567 187.026 422.708 163.27C422.422 155.971 420.991 148.816 420.275 142.376C423.854 147.098 427.003 168.136 423.997 183.592C421.277 198.046 415.122 210.926 405.387 221.802C378.905 251.712 333.813 257.723 301.461 235.541C267.678 212.5 256.226 169.281 274.263 133.503C292.586 97.1529 332.668 83.2712 364.304 92.5734C363.731 92.4303 363.015 92.5734 362.443 92.5734C361.87 92.5734 361.154 92.5734 360.582 92.5734C359.293 92.5734 358.005 92.5734 356.717 92.5734C354.14 92.5734 351.563 92.5734 348.987 92.5734C345.837 92.5734 343.547 92.5734 340.541 92.7165C339.825 92.7165 338.966 92.8596 338.251 93.1458C337.964 93.2889 337.535 93.432 337.535 93.5752C337.535 93.5752 347.412 93.5752 348.271 93.5752C364.59 94.1476 379.191 99.0133 391.073 110.605C397.944 117.331 402.668 125.489 404.672 134.791C406.962 145.238 401.093 153.109 390.214 153.109C384.058 153.109 377.617 152.107 371.891 149.961C364.447 147.242 358.148 150.676 353.567 157.975C355.858 157.545 358.005 157.259 360.009 156.973C360.152 157.259 360.152 157.545 360.295 157.689C357.862 158.69 355.285 159.692 352.852 160.694C350.561 161.553 348.128 162.554 345.837 163.413C345.981 163.985 345.981 163.842 345.981 164.558H368.741C368.741 164.844 368.741 165.13 368.741 165.417C364.304 165.989 359.866 166.418 355.428 166.991C355.428 167.134 355.428 167.277 355.428 167.42C358.005 167.706 360.582 167.993 363.158 168.136C363.158 168.422 363.158 168.708 363.158 168.994C356.574 169.424 350.132 169.853 343.547 170.282C343.547 170.569 343.547 170.569 343.547 170.855C348.7 172.572 353.854 174.289 359.007 175.864C359.007 176.15 358.864 176.436 358.864 176.722C357.003 176.579 355.142 176.436 352.852 176.293C353.281 177.008 353.567 177.438 353.854 178.01C349.416 177.152 345.122 176.436 340.827 175.72C340.684 176.293 340.684 176.15 340.398 176.579C346.553 180.586 352.852 184.45 359.007 188.457C358.864 188.744 358.721 189.03 358.578 189.316C351.993 185.023 344.406 184.45 337.535 181.016C337.105 181.588 337.105 181.445 336.676 182.017C340.398 186.024 343.261 189.888 345.981 193.895C342.545 190.604 338.966 187.312 335.531 184.021C337.678 187.885 340.255 191.319 342.974 194.611C343.976 195.756 345.694 196.901 345.981 193.895ZM332.095 192.751C333.527 195.327 336.819 196.042 341.114 194.611C337.678 190.747 334.242 186.883 330.95 183.162C330.664 183.305 330.377 183.448 330.234 183.592C330.807 186.74 331.379 189.888 332.095 192.751C331.379 191.892 330.664 191.033 329.948 190.032C329.662 190.175 329.232 190.461 328.946 190.604C329.518 191.749 330.091 193.037 330.664 194.182C330.95 193.752 331.523 193.323 332.095 192.751ZM304.038 176.579C303.895 176.436 303.895 176.15 303.752 176.007C300.602 176.15 297.596 176.436 294.447 176.579C294.304 176.15 294.304 175.72 294.161 175.434C296.737 174.146 299.314 172.715 301.748 171.57C298.885 170.282 296.165 169.137 293.302 167.993C293.302 167.849 293.445 167.563 293.445 167.42C297.31 166.991 301.032 166.561 305.613 165.989C301.461 163.699 298.169 161.839 294.733 159.978C294.447 160.694 294.447 160.98 294.304 161.409C293.159 165.417 290.725 166.132 288.148 162.841C286.431 160.551 284.856 157.689 284.427 154.826C282.566 142.805 284.856 131.499 291.011 121.052C291.584 120.051 292.157 119.049 293.159 117.475C292.157 118.047 292.013 118.047 291.87 118.19C291.584 118.476 291.298 118.763 291.011 119.049C280.848 131.499 276.41 145.81 277.555 161.839C278.271 170.855 281.85 178.583 289.723 183.878C290.582 184.45 292.443 185.023 293.159 184.45C297.024 181.874 300.459 179.155 304.038 176.579ZM310.336 115.757C300.746 120.766 295.306 128.637 293.588 139.227C293.015 142.519 293.588 145.095 296.88 146.669C298.885 147.671 300.459 149.245 302.32 150.533C303.036 150.962 303.752 151.392 304.611 151.821C295.735 137.939 299.743 126.347 310.336 115.757ZM306.615 160.265C302.034 155.399 297.883 150.819 293.159 145.667C293.302 149.818 293.445 153.252 293.731 156.687C293.731 157.402 294.161 158.547 294.59 158.69C298.455 159.835 302.32 160.98 306.615 160.265ZM320.786 234.396C316.778 230.961 313.056 227.67 309.191 224.521C308.046 223.662 306.471 224.95 307.044 226.238C307.044 226.382 307.187 226.382 307.187 226.525C310.766 230.961 315.633 233.108 320.786 234.396ZM306.471 182.16C306.185 181.731 305.756 181.445 305.469 181.016C301.891 182.447 298.312 184.021 294.161 185.595C296.451 187.026 297.883 189.173 300.173 187.456C302.463 185.881 304.467 184.021 306.471 182.16ZM328.087 194.468C326.799 190.747 325.653 187.742 324.508 184.736C324.222 184.736 323.936 184.736 323.649 184.88C323.077 187.456 322.647 190.032 322.218 192.607C322.218 192.894 322.647 193.609 323.077 193.609C324.508 194.039 325.94 194.182 328.087 194.468ZM311.768 184.021C311.339 183.735 311.052 183.448 310.623 183.019C308.046 185.023 305.613 187.026 303.036 189.03C303.179 189.459 303.322 189.888 303.465 190.318C305.183 190.318 307.474 191.033 308.332 190.175C309.907 188.6 310.623 186.168 311.768 184.021ZM313.199 191.606C313.486 192.035 313.772 192.464 314.058 193.037C315.49 192.608 317.923 192.464 318.353 191.606C319.069 189.888 318.496 187.742 318.496 185.738C318.21 185.595 317.923 185.452 317.637 185.309C316.206 187.456 314.774 189.602 313.199 191.606Z" fill="black"/>
<path d="M518.761 227.526C521.624 214.074 517.759 201.337 514.896 188.743C513.894 184.021 513.751 179.441 514.753 174.862C517.187 164.129 517.473 153.395 514.038 142.805C511.604 135.22 507.023 128.637 502.442 122.197C500.725 119.764 499.579 117.045 500.009 114.04C501.584 102.591 496.287 94.1476 487.984 87.2783C482.545 82.8419 476.676 78.6917 470.807 74.5415C466.798 71.8224 464.079 68.2446 461.931 63.9513C459.211 58.6562 456.062 53.3611 452.34 48.6385C447.76 42.9141 441.461 40.195 434.017 40.195C433.301 40.195 432.443 40.0519 431.727 40.0519C424.999 40.4812 420.275 37.1897 416.553 31.8946C412.115 25.7408 406.389 20.8751 398.516 21.0182C393.792 21.0182 389.068 22.1631 384.631 23.5942C380.766 24.7391 377.617 24.1666 374.467 21.7337C373.036 20.5889 371.747 19.5871 370.316 18.4422C365.878 15.0076 360.868 13.8627 355.428 14.8645C354.856 15.0076 354.283 15.1507 353.711 15.1507C353.567 15.1507 353.281 15.1507 352.709 15.0076C358.435 12.0023 364.161 11.5729 370.03 11.716C377.617 12.0022 384.631 14.5782 391.502 17.2973C396.083 19.0147 400.807 19.444 405.674 19.1578C408.823 19.0147 411.972 19.0147 414.978 19.0147C422.422 19.0147 429.007 21.5906 433.874 27.0288C440.459 34.4706 448.618 38.3345 458.066 40.195C469.661 42.4847 477.248 50.0696 481.256 60.8029C484.549 69.3895 489.988 75.4001 497.575 80.2659C509.886 87.9938 516.328 99.4427 518.189 114.04C518.905 119.621 521.768 124.916 524.201 130.068C528.639 139.8 531.788 149.817 530.786 160.694C530.357 165.989 529.354 171.427 527.78 176.436C525.633 183.305 525.346 190.175 526.205 197.187C527.35 206.632 525.633 215.648 521.195 224.092C520.336 225.666 519.477 226.668 518.761 227.526Z" fill="black"/>
<path d="M218.721 246.131C221.727 248.85 224.018 250.853 226.308 253C228.598 255.147 228.598 258.009 228.742 260.871C229.171 270.173 234.468 276.47 243.629 278.617C245.49 279.046 247.208 279.619 249.069 279.762C253.363 280.191 255.51 282.767 257.228 286.345C258.66 289.636 260.664 292.785 262.954 295.361C266.962 299.94 272.259 302.087 278.271 302.373C280.848 302.516 283.424 302.516 285.858 302.373C291.155 302.087 295.592 303.661 299.171 307.811C307.187 316.97 317.78 319.546 328.803 316.541C340.398 313.393 350.991 314.537 362.156 317.543C368.026 319.117 374.324 319.403 380.48 319.689C386.349 319.976 391.931 318.115 396.083 313.965C400.234 309.672 405.244 308.813 410.684 308.384C420.275 307.668 429.436 305.665 437.739 300.513C443.322 297.078 448.332 292.785 452.34 287.49C455.919 282.767 460.929 279.905 466.083 277.329C473.383 273.465 480.684 269.458 487.698 265.021C491.277 262.732 493.997 259.011 497.003 256.148C496.144 260.012 494.283 264.02 491.277 267.025C486.123 272.034 480.97 277.043 475.244 281.479C470.52 285.057 466.512 289.207 463.076 294.073C455.06 305.951 443.895 313.679 430.009 317.257C426.43 318.258 422.708 318.831 419.273 319.976C415.98 321.121 412.974 322.981 409.682 324.126C403.097 326.273 396.512 328.419 389.927 330.137C383.343 331.854 376.758 330.709 370.316 328.705C362.872 326.416 355.572 326.845 348.128 329.278C341.257 331.568 334.099 332.712 327.085 330.137C321.788 328.133 316.635 325.414 311.768 322.265C306.758 318.974 301.604 317.4 295.878 317.257C289.437 316.97 283.424 315.253 278.414 310.817C276.553 309.242 274.692 307.668 272.831 306.094C269.682 303.232 266.533 300.226 263.24 297.507C261.236 295.933 258.946 294.931 256.799 293.643C254.222 292.069 251.502 290.352 249.069 288.635C245.776 286.202 242.77 283.053 239.335 280.907C232.893 276.756 228.885 271.461 228.455 263.59C228.312 261.3 227.024 259.011 225.592 257.15C222.872 253.429 219.58 250.996 218.721 246.131Z" fill="black"/>
<path d="M262.382 200.622C256.799 197.473 251.073 194.754 245.776 191.176C241.052 188.028 241.195 184.593 245.919 181.588C251.073 178.44 256.799 175.864 262.382 173.001C262.811 174.146 263.097 174.719 263.24 175.148C263.956 185.023 267.249 194.182 270.827 203.198C276.84 218.081 286.86 229.816 300.03 239.118C302.034 240.549 304.324 241.265 306.471 242.553C308.619 243.841 310.766 244.986 313.056 245.988C317.637 248.134 322.361 249.708 327.228 250.853C336.962 253.143 347.126 253.286 357.003 251.426C364.017 250.138 371.032 248.85 377.76 246.703C379.621 246.131 381.768 245.845 383.486 244.986C389.784 241.694 396.226 238.546 402.095 234.682C405.817 232.249 408.823 228.528 412.259 225.523C412.974 224.95 414.263 224.235 414.978 224.378C417.555 225.093 420.275 225.809 422.708 227.097C428.291 230.245 429.58 237.544 425.428 242.553C419.845 249.279 412.259 252.857 404.385 255.862C384.631 263.59 363.874 265.021 342.974 264.02C332.238 263.447 321.645 262.445 311.625 258.295C308.476 257.007 305.613 255.147 302.893 253C300.316 250.853 300.173 248.277 301.461 244.986C301.747 244.127 301.604 242.553 301.032 242.124C297.024 238.832 292.729 235.827 288.721 232.392C280.991 225.666 275.122 217.079 270.398 208.206C267.392 202.625 265.531 196.042 264.672 189.602C263.813 183.162 258.517 179.298 252.504 181.445C250.643 182.16 248.926 182.876 247.208 183.878C244.488 185.166 244.202 187.169 246.492 189.03C249.498 191.319 252.791 193.323 255.94 195.327C258.23 196.758 260.521 197.903 262.954 199.191C262.668 199.906 262.525 200.192 262.382 200.622Z" fill="black"/>
<path d="M505.019 237.115C507.023 233.537 509.6 230.102 511.031 226.381C513.322 220.514 512.177 214.217 511.461 208.063C510.745 203.198 509.743 198.475 508.455 193.752C506.594 186.74 506.594 179.728 508.168 172.572C511.461 157.832 508.598 144.093 499.866 131.642C499.293 130.784 498.721 129.782 498.005 128.923C494.426 124.344 492.422 119.335 493.138 113.181C494.14 104.165 488.986 97.7253 482.545 92.4302C477.964 88.5663 473.097 84.8454 468.087 81.5539C461.645 77.5468 457.494 72.1086 454.631 65.0962C451.911 58.2269 447.473 52.3593 440.745 49.0678C437.023 47.3505 432.443 46.778 428.291 46.778C422.136 46.6349 417.412 44.2021 413.69 39.4794C412.402 37.9052 411.113 36.331 409.682 34.7568C403.813 27.8875 396.512 26.4564 388.21 28.8893C387.494 29.0324 386.921 29.1755 386.206 29.6048C379.907 32.6101 374.61 31.3221 369.6 26.5995C364.59 21.8769 358.721 20.1595 352.136 23.0217C349.989 24.0235 347.985 25.3115 346.267 26.8857C342.402 30.1772 338.251 31.3221 333.24 30.3204C331.379 29.891 329.375 29.891 327.371 30.1772C322.504 30.6066 319.212 33.4688 317.065 37.7621C315.633 40.7674 313.343 42.9141 310.05 44.0589C308.619 44.6314 307.33 45.49 305.899 46.0625C300.03 48.4954 297.453 52.9318 297.596 59.2286C297.739 62.3771 296.594 64.8099 294.447 67.0997C290.582 71.393 289.15 76.8312 288.721 82.4125C288.148 90.1405 287.433 98.0115 287.003 105.739C286.86 106.884 287.146 107.886 287.29 109.317C292.586 105.453 297.167 101.16 302.463 98.1546C318.639 88.8525 334.958 83.5574 354.856 85.1316C363.588 85.8472 372.177 88.5663 380.336 91.4285C387.923 94.0045 394.079 99.2995 400.52 103.879C400.807 104.022 401.093 104.308 401.379 104.452C408.537 109.317 413.833 116.043 418.7 122.913C422.279 127.922 425.571 133.503 427.719 139.227C429.866 144.809 431.011 150.962 431.727 156.83C432.586 164.272 433.588 171.856 432.872 179.298C432.156 186.454 429.866 193.323 427.719 200.192C426.43 204.199 423.997 207.777 422.422 211.641C420.848 215.505 418.128 218.224 414.406 220.514C428.005 201.48 433.445 180.3 429.866 157.259C426.287 134.218 414.549 115.614 395.51 102.162C378.762 90.2836 359.866 85.2747 339.539 87.1352C319.355 89.1387 302.034 97.7253 287.433 112.179C287.146 111.893 286.717 111.75 286.431 111.464C286.431 107.171 286.287 102.877 286.431 98.584C286.717 92.5733 287.433 86.7058 287.576 80.8383C287.862 73.969 290.153 67.9584 294.59 62.5202C296.165 60.6597 296.881 57.5113 296.881 54.9353C296.881 49.0678 299.6 45.2038 304.754 42.771C305.469 42.4847 306.042 41.9123 306.758 41.6261C311.911 40.0519 315.49 36.7603 317.923 32.0377C320.93 26.5995 326.226 25.7408 331.809 26.1702C334.386 26.3133 337.249 27.0288 339.682 26.4564C342.545 25.7408 345.122 24.0235 347.555 22.1631C355.428 16.0093 362.3 15.8662 370.03 22.4493C375.183 26.8857 380.48 28.7461 387.208 25.7408C392.647 23.308 398.516 22.8786 403.956 25.4546C406.39 26.5995 408.537 28.3168 410.541 30.1772C412.545 32.0377 414.406 34.3274 416.124 36.6172C418.987 40.4812 422.852 42.4847 427.576 42.9141C428.721 43.0572 429.866 43.2003 431.154 43.2003C443.751 42.771 451.481 49.7834 456.492 60.2304C460.07 67.529 463.935 74.2552 471.093 78.6916C475.101 81.1245 479.252 83.8436 482.831 86.992C486.696 90.4267 490.275 94.1476 493.567 98.1546C496.43 101.732 497.575 106.169 496.86 110.605C495.714 117.188 498.577 122.054 501.87 127.206C505.305 132.644 508.741 138.369 511.031 144.379C514.467 153.252 514.324 162.697 512.033 171.856C509.886 180.3 511.318 188.314 513.465 196.328C515.612 204.915 517.187 213.788 515.899 222.661C514.753 229.673 510.173 233.966 505.019 237.115Z" fill="black"/>
<path d="M224.59 206.203C220.725 211.069 221.584 216.221 223.588 221.373C225.02 224.95 224.59 228.242 223.445 231.677C221.584 237.258 223.016 241.837 227.883 245.272C232.32 248.421 234.611 252.571 234.754 258.152C235.04 266.452 239.478 271.318 247.637 272.749C249.212 273.036 250.643 273.465 252.218 273.751C257.228 274.467 260.377 277.329 262.238 282.051C266.103 292.212 273.69 296.649 284.427 296.076C286.574 295.933 288.721 296.076 290.868 296.076C294.876 296.076 298.455 297.364 301.032 300.513C309.191 310.244 319.927 312.963 331.379 309.386C342.116 306.094 351.85 308.241 362.156 310.674C368.312 312.105 374.897 312.391 381.338 312.534C386.492 312.677 391.072 310.53 394.651 306.666C398.516 302.373 403.67 301.944 408.823 301.658C420.991 300.799 432.299 297.507 441.461 289.064C443.751 286.917 446.185 284.627 448.046 282.051C452.627 276.041 459.211 273.179 465.653 269.887C472.095 266.596 478.25 262.875 484.262 258.868C489.416 255.433 492.851 250.424 494.999 244.557C495.285 243.984 495.571 243.269 495.858 242.696C495.858 242.553 496.144 242.553 496.573 242.41C496.001 249.422 493.567 255.29 488.557 260.012C481.686 266.452 473.383 270.603 464.937 274.324C458.925 276.9 453.629 280.334 449.477 285.629C442.892 293.93 434.59 300.083 424.283 302.802C418.557 304.234 412.545 304.949 406.676 305.665C402.095 306.237 398.23 307.382 394.938 310.817C390.214 315.539 384.058 317.543 377.473 316.684C369.028 315.682 360.725 313.965 352.422 312.105C345.981 310.674 339.825 310.674 333.67 312.534C326.512 314.537 319.212 315.682 312.054 312.82C308.189 311.246 304.611 308.527 301.604 305.665C297.31 301.371 292.443 299.082 286.431 299.368C283.854 299.511 281.277 299.511 278.844 299.368C270.255 299.082 264.672 294.788 260.95 287.347C259.805 285.057 258.803 282.767 257.371 280.763C254.652 277.186 250.214 276.899 246.349 276.184C237.044 274.467 232.75 270.03 232.32 260.728C232.034 255.719 230.316 251.712 226.165 248.707C225.163 247.991 224.161 247.133 223.302 246.131C219.723 242.553 218.292 238.403 220.439 233.68C222.157 229.959 221.87 226.382 220.582 222.661C218.578 216.936 219.294 211.641 223.731 207.205C223.875 206.489 224.304 206.346 224.59 206.203Z" fill="black"/>
<path d="M435.162 159.978C437.453 151.678 440.029 143.521 442.034 135.22C446.901 115.328 449.907 95.1493 447.044 74.5414C446.042 66.9566 443.751 59.8011 439.314 53.6473C439.027 53.218 438.884 52.7887 439.171 51.93C440.459 52.7887 442.034 53.3611 443.179 54.506C450.05 60.6597 454.058 68.3877 455.346 77.5467C457.494 94.0044 454.631 109.89 449.62 125.489C446.042 136.365 441.461 146.812 437.166 157.402C436.737 158.404 436.164 159.406 435.592 160.408C435.306 160.121 435.306 160.121 435.162 159.978Z" fill="black"/>
<path d="M445.04 182.16C450.05 176.436 455.346 170.855 460.07 164.844C470.234 152.107 478.68 138.369 482.258 122.054C484.119 113.897 484.119 105.739 482.115 97.7253C481.972 97.296 481.972 96.8667 481.829 96.008C485.265 98.1547 486.553 101.303 487.841 104.452C491.134 112.609 489.845 120.766 487.698 128.923C482.688 147.385 471.236 161.266 456.921 173.144C453.772 175.864 450.479 178.44 447.187 181.016C446.614 181.588 445.755 181.874 445.183 182.447C445.04 182.304 445.04 182.16 445.04 182.16Z" fill="black"/>
<path d="M504.017 146.812C505.878 154.111 506.594 161.409 505.305 168.851C504.446 174.003 503.301 179.298 501.154 184.021C498.148 190.747 491.993 194.468 485.265 197.044C473.383 201.623 460.929 202.196 448.475 202.768C448.475 202.482 448.332 202.339 448.332 202.053C450.766 201.48 453.342 201.051 455.776 200.479C468.373 197.616 480.254 192.894 489.702 183.591C499.007 174.289 502.442 162.84 503.301 150.247C503.444 149.245 503.301 148.1 503.301 147.098C503.444 146.812 503.731 146.812 504.017 146.812Z" fill="black"/>
<path d="M451.625 222.231C458.782 220.943 465.939 221.516 472.954 223.09C476.819 223.949 480.827 224.807 484.692 225.38C493.138 226.525 498.148 223.09 500.295 214.933C501.154 211.784 501.87 208.636 502.872 205.63C503.158 204.772 504.303 203.627 505.305 203.484C505.878 203.341 507.166 204.629 507.453 205.487C510.172 214.503 509.886 223.233 505.019 231.39C503.731 233.537 501.297 234.968 499.293 236.685C497.862 237.83 496.573 237.544 494.999 236.542C484.978 230.245 474.242 225.523 462.504 223.662C459.068 222.947 455.346 222.661 451.625 222.231Z" fill="black"/>
<path d="M339.253 279.475C336.103 285.057 331.093 289.064 326.369 293.214C324.508 294.788 322.504 296.076 320.643 297.794C318.782 299.654 319.069 301.371 321.502 302.23C323.506 302.946 325.797 303.232 328.087 303.661C329.662 303.947 331.379 303.804 332.954 303.947C332.954 304.377 332.954 304.663 332.811 304.663C324.794 307.811 316.778 308.813 309.048 303.661C308.046 302.946 307.044 302.087 306.328 301.085C303.752 297.794 304.324 295.933 308.189 294.502C311.911 293.214 315.776 292.355 319.498 291.211C327.085 288.921 333.67 285.2 339.253 279.475Z" fill="black"/>
<path d="M421.42 116.33C422.136 86.4196 420.991 57.082 401.666 31.8946C403.67 31.7515 405.674 32.7532 408.107 35.1861C414.263 41.1967 416.839 48.9247 419.13 56.7958C423.567 71.5361 424.14 86.5627 422.852 101.876C422.422 106.598 421.993 111.464 421.42 116.33Z" fill="black"/>
<path d="M270.255 288.635C278.987 292.642 287.146 291.067 294.876 286.488C301.175 282.767 307.33 278.76 313.486 274.896C314.488 274.324 315.633 273.751 316.921 273.465C309.478 278.474 303.322 284.914 297.596 291.64C297.024 292.355 295.735 292.928 294.876 292.928C289.15 293.071 283.568 293.214 277.842 292.928C274.836 292.785 271.829 291.64 270.255 288.635Z" fill="black"/>
<path d="M389.355 71.8224C383.915 53.5042 375.756 37.0465 359.437 25.7408C359.58 25.4546 359.723 25.1684 359.866 25.0253C361.727 25.7408 363.588 26.1702 365.306 27.0288C372.177 30.8928 376.328 37.4759 380.193 43.9158C385.347 52.5025 388.066 61.9477 389.355 71.8224Z" fill="black"/>
<path d="M242.913 268.313C245.061 268.599 247.065 268.885 249.212 269.172C258.373 270.173 266.533 266.596 274.692 263.59C280.275 261.444 285.715 258.868 291.584 256.721C291.298 257.007 291.155 257.436 290.868 257.58C281.134 262.159 271.4 267.025 261.523 271.318C256.512 273.465 247.637 271.891 242.913 268.313Z" fill="black"/>
<path d="M262.954 230.675C251.789 230.818 240.766 230.675 230.602 225.094C226.022 222.518 222.872 218.797 223.588 213.072C223.731 212.214 224.161 211.355 224.304 210.639C225.592 213.645 226.594 216.65 228.312 219.083C231.605 223.806 237.044 225.237 242.198 226.525C248.926 228.385 255.797 229.387 262.954 230.675Z" fill="black"/>
<path d="M354.14 277.901C353.567 281.479 352.995 285.2 352.422 288.778C350.991 298.938 351.134 302.087 362.729 306.809C366.308 308.241 370.173 309.099 372.749 309.815C367.596 310.387 357.576 307.382 352.565 303.518C348.844 300.656 348.7 296.649 349.702 292.642C350.848 287.633 352.136 282.624 353.424 277.615C353.567 277.758 353.854 277.901 354.14 277.901Z" fill="black"/>
<path d="M227.883 243.841C241.482 249.422 255.224 246.274 269.11 244.986C266.962 245.558 264.815 246.274 262.668 246.703C254.079 248.564 245.347 249.136 236.472 248.134C233.179 247.705 230.173 246.417 227.883 243.841Z" fill="black"/>
<path d="M255.224 213.072C247.494 211.641 239.764 209.924 233.895 204.199C231.175 201.48 231.175 197.187 233.752 194.325C232.893 201.48 237.76 204.486 242.627 207.205C246.635 209.495 251.073 211.069 255.224 213.072Z" fill="black"/>
<path d="M348.271 16.7249C342.545 25.1684 334.958 23.8804 327.228 22.1631C329.089 21.5906 330.807 20.732 332.811 20.4457C337.821 19.8733 343.118 20.732 348.271 16.7249Z" fill="black"/>
<path d="M224.59 206.203C228.885 201.051 228.312 193.18 234.038 188.6C237.474 185.881 240.623 182.733 244.202 180.157C240.766 183.735 237.187 187.026 234.181 190.89C232.607 192.894 231.175 195.613 230.746 198.046C230.173 202.196 227.883 204.342 224.59 206.203Z" fill="black"/>
</g>
<defs>
<filter id="filter0_d" x="0.949707" y="337.913" width="746.994" height="205.55" filterUnits="userSpaceOnUse" color-interpolation-filters="sRGB">
<feFlood flood-opacity="0" result="BackgroundImageFix"/>
<feColorMatrix in="SourceAlpha" type="matrix" values="0 0 0 0 0 0 0 0 0 0 0 0 0 0 0 0 0 0 127 0"/>
<feOffset dy="4"/>
<feGaussianBlur stdDeviation="12.5"/>
<feColorMatrix type="matrix" values="0 0 0 0 0 0 0 0 0 0 0 0 0 0 0 0 0 0 0.4 0"/>
<feBlend mode="normal" in2="BackgroundImageFix" result="effect1_dropShadow"/>
<feBlend mode="normal" in="SourceGraphic" in2="effect1_dropShadow" result="shape"/>
</filter>
<filter id="filter1_d" x="203.721" y="0.6922" width="342.252" height="349.914" filterUnits="userSpaceOnUse" color-interpolation-filters="sRGB">
<feFlood flood-opacity="0" result="BackgroundImageFix"/>
<feColorMatrix in="SourceAlpha" type="matrix" values="0 0 0 0 0 0 0 0 0 0 0 0 0 0 0 0 0 0 127 0"/>
<feOffset dy="4"/>
<feGaussianBlur stdDeviation="7.5"/>
<feColorMatrix type="matrix" values="0 0 0 0 0 0 0 0 0 0 0 0 0 0 0 0 0 0 0.5 0"/>
<feBlend mode="normal" in2="BackgroundImageFix" result="effect1_dropShadow"/>
<feBlend mode="normal" in="SourceGraphic" in2="effect1_dropShadow" result="shape"/>
</filter>
</defs>
</svg>
