<svg width="1440" height="74" viewBox="0 0 1440 74" fill="none" xmlns="http://www.w3.org/2000/svg">
<mask id="mask0" mask-type="alpha" maskUnits="userSpaceOnUse" x="-37" y="0" width="1515" height="75">
<path d="M405.042 3.70367C404.392 3.45635 404.002 3.70367 405.042 3.70367V3.70367Z" fill="white"/>
<path d="M901.756 3.70386C902.016 3.70386 902.016 3.70386 902.277 3.70386C902.667 3.21001 902.927 2.71616 903.318 2.46924L901.756 3.70386Z" fill="white"/>
<path d="M981.678 6.91369C981.808 6.91369 981.938 6.91369 982.198 7.16059C982.198 6.66679 982.198 6.4199 981.678 6.91369Z" fill="white"/>
<path d="M718.352 6.41987C717.701 6.17279 717.311 6.41987 717.051 6.41987C717.441 6.41987 717.832 6.41987 718.352 6.41987Z" fill="white"/>
<path d="M258.606 6.17277C258.606 6.17277 258.867 6.17277 258.997 6.17277C258.737 6.17277 258.476 5.92578 258.086 5.92578L258.606 6.17277Z" fill="white"/>
<path d="M260.168 5.43213C261.991 5.67899 259.648 6.1727 258.867 6.1727C260.819 6.91327 262.772 6.91327 264.724 6.66641C264.724 5.92584 261.08 5.92584 260.168 5.43213Z" fill="white"/>
<path d="M724.861 44.6914C724.47 44.6914 723.949 44.6914 723.559 44.6914C724.21 44.9383 724.6 44.9383 724.861 44.6914Z" fill="white"/>
<path d="M34.7214 16.2958L34.9811 15.0615C34.7214 15.8021 34.7214 16.049 34.7214 16.2958Z" fill="white"/>
<path d="M903.318 2.46917L903.838 1.9751C903.708 1.9751 903.448 2.22213 903.318 2.46917Z" fill="white"/>
<path d="M1055.48 7.65479C1055.48 8.14865 1055.74 8.39559 1055.87 8.64252C1056 8.64252 1056 8.64252 1056.13 8.64252L1055.48 7.65479Z" fill="white"/>
<path d="M1426.06 23.2099C1426.06 22.9631 1425.93 22.9631 1425.8 22.7163L1424.37 23.4568C1425.15 23.4568 1425.67 23.2099 1426.06 23.2099Z" fill="white"/>
<path d="M1156.75 16.5433C1156.88 16.2964 1157.14 16.2964 1157.14 16.0495C1155.45 15.5557 1150.89 15.5557 1145.04 15.5557L1144.65 17.0372L1156.75 16.5433Z" fill="white"/>
<path d="M1267 59.2593C1263.23 58.2716 1259.32 56.7901 1255.55 55.3086C1264.92 56.2963 1272.73 55.8025 1279.63 55.8025C1283.14 55.8025 1286.27 55.5556 1289.39 55.5556C1290.95 55.5556 1292.38 55.5556 1293.95 55.5556C1295.51 55.5556 1297.07 55.5556 1298.5 55.5556C1304.62 55.8025 1310.48 55.8025 1316.72 55.8025C1319.85 55.8025 1323.1 55.8025 1326.49 55.5556C1326.88 55.5556 1327.27 55.5556 1327.79 55.5556H1328.44H1329.35C1330.65 55.3086 1331.95 55.0617 1333.13 54.5679C1335.6 53.5802 1337.94 52.0988 1340.02 50.6173C1339.37 51.358 1338.85 51.8518 1338.2 52.5926C1339.5 51.8518 1340.67 50.8642 1342.24 49.1358C1343.8 47.6543 1345.75 45.1852 1348.35 42.963C1350.83 40.9877 1354.34 39.2593 1360.72 39.5062C1362.28 39.5062 1364.1 39.7531 1366.06 40C1368.14 40.2469 1370.22 40.4938 1372.57 40.7407C1377.25 41.2346 1382.46 42.2222 1388.45 43.2099V43.4568C1390.14 43.4568 1390.14 42.716 1393.39 43.7037L1385.19 41.9753C1390.14 41.2346 1394.43 39.7531 1401.07 39.5062C1402.5 39.7531 1402.89 40.4938 1403.02 40.9877L1419.16 40.4938L1424.11 42.4691C1429.06 41.4815 1426.84 37.284 1439.99 39.5062C1435.05 36.7901 1446.5 37.7778 1444.94 36.2963C1445.59 36.5432 1447.15 37.284 1448.32 37.5309C1450.27 37.5309 1452.62 37.284 1455.22 37.284C1455.74 37.284 1456.39 37.284 1456.91 37.284C1457.43 37.284 1458.08 37.284 1458.74 37.284C1460.04 37.284 1461.47 37.284 1462.77 37.284C1464.2 37.284 1465.76 37.284 1467.2 36.7901C1468.76 36.5432 1470.19 36.0494 1471.62 35.3086C1474.49 33.8272 1476.83 30.8642 1478 29.1358C1478 29.1358 1477.87 29.3827 1477.48 29.6296C1477.09 29.8765 1476.7 30.3704 1476.05 30.8642C1474.75 31.8519 1472.92 33.0864 1470.84 33.5802C1466.68 34.5679 1461.99 33.0864 1457.95 31.8519C1456.13 31.358 1453.66 30.8642 1451.58 30.3704C1449.36 29.8765 1447.15 29.3827 1445.2 28.8889C1441.16 27.9012 1437.65 26.9136 1435.57 26.1728C1446.63 26.9136 1438.43 25.9259 1436.35 24.9383L1435.57 25.679C1428.93 24.9383 1428.93 23.2099 1425.67 22.716C1425.67 22.963 1425.8 22.963 1425.8 23.2099L1426.19 22.963C1426.45 23.2099 1426.32 23.4568 1425.93 23.7037C1426.06 24.1975 1425.67 24.4444 1423.85 24.1975L1424.24 23.9506C1421.51 24.1975 1416.69 23.9506 1414.61 23.7037V22.2222C1409.66 24.9383 1381.55 17.7778 1375.04 17.7778C1371.65 16.7901 1368.01 17.037 1364.1 17.284C1360.2 17.5309 1355.9 18.0247 1351.61 19.0123C1348.22 20 1346.01 21.2346 1344.58 21.7284C1343.15 22.4691 1342.5 22.716 1342.11 22.716C1341.2 22.716 1340.94 21.9753 1337.81 23.9506C1335.86 25.1852 1335.21 25.679 1334.95 25.9259C1334.69 26.1728 1335.08 26.1728 1335.6 26.1728C1336.64 26.1728 1338.2 25.4321 1336.77 26.6667C1333.78 28.3951 1330.91 29.1358 1328.31 28.642C1330.52 28.3951 1331.04 27.6543 1330.91 27.4074C1330.78 27.1605 1329.87 27.1605 1329.48 26.9136C1329.09 26.9136 1328.7 26.9136 1328.31 26.9136C1327.79 26.9136 1327.14 26.9136 1326.62 26.9136C1325.45 26.9136 1324.14 26.6667 1322.97 26.6667C1320.5 26.4198 1317.9 26.1728 1315.55 25.9259C1310.74 25.679 1306.83 25.679 1305.53 27.1605C1294.08 25.679 1293.95 24.4444 1289 24.4444C1290.69 24.9383 1294.08 25.4321 1294.08 25.9259C1289.39 24.6914 1291.86 26.1728 1293.82 26.6667C1290.17 27.1605 1280.93 26.4198 1272.6 25.4321C1268.43 24.9383 1264.53 24.4444 1261.66 23.9506C1258.8 23.4568 1256.72 23.4568 1256.33 24.1975V23.7037C1254.64 25.9259 1256.98 28.642 1252.29 29.1358L1249.3 27.1605C1247.74 26.9136 1246.17 26.6667 1244.61 26.4198C1243.83 25.9259 1243.44 25.4321 1243.18 25.1852C1242.92 24.9383 1242.79 24.6914 1242.79 24.4444C1242.79 24.1975 1243.31 24.1975 1243.31 23.9506C1241.1 23.2099 1238.76 22.4691 1236.28 21.9753C1233.81 21.4815 1231.21 20.9877 1228.6 20.7407C1223.4 20.2469 1217.93 20.2469 1213.11 20.2469C1216.63 22.2222 1220.14 24.1975 1223.66 26.4198C1219.49 25.679 1213.63 24.9383 1208.82 24.4444C1204 23.7037 1199.71 23.4568 1198.92 24.6914L1193.98 22.4691C1177.45 18.2716 1182.39 24.1975 1175.89 22.963L1167.55 20.4938H1175.75C1167.55 19.2593 1164.17 18.5185 1157.66 16.7901H1157.53C1157.92 16.7901 1158.31 17.037 1158.31 17.037H1157.14C1156.1 18.2716 1151.8 19.0123 1146.08 19.0123C1137.88 18.7654 1131.37 20.4938 1118.09 17.7778L1114.84 20.2469L1104.94 18.7654V16.7901C1114.71 16.7901 1132.93 16.0494 1145.43 16.0494L1145.69 15.0617C1138.27 15.0617 1129.94 16.0494 1124.99 15.8025C1122.65 15.3086 1116.53 13.3333 1120.96 12.0988L1116.4 14.0741C1110.28 14.0741 1105.6 14.0741 1101.69 14.0741C1099.74 14.0741 1098.05 14.0741 1096.35 14.0741C1095.57 14.0741 1094.66 14.0741 1093.88 14.0741C1093.36 14.0741 1092.71 14.0741 1092.19 13.8272C1089.72 13.3333 1086.98 12.0988 1082.43 10.3704C1081.25 9.87654 1079.95 9.62963 1078.52 9.38272C1078.13 9.38272 1077.87 9.38272 1077.48 9.1358C1077.22 9.1358 1076.83 9.1358 1076.57 9.1358C1075.92 9.1358 1075.4 9.1358 1074.75 8.88889C1072.14 8.64197 1069.28 8.39506 1066.03 8.14815L1068.24 9.1358C1065.63 9.38272 1063.03 9.62963 1060.95 9.62963C1058.87 9.62963 1057.17 9.38272 1056.52 8.64198C1041.03 8.39506 1025.02 7.16049 1015 4.69136L1012.14 6.66667C1008.88 6.41975 1003.94 2.96296 1002.37 6.17284L995.475 7.40741C991.05 7.16049 988.316 8.64198 983.24 7.16049C982.979 7.16049 982.589 6.91358 982.328 6.91358V7.16049C972.176 6.17284 982.459 9.1358 970.874 7.90123C967.099 6.17284 966.709 10.8642 961.111 10.3704L955.514 6.91358C945.361 4.93827 943.539 8.39506 928.7 8.39506C921.541 7.16049 918.157 4.44444 922.843 1.72839C916.334 4.69136 919.849 3.7037 911.258 5.18518C909.956 3.95062 910.867 3.7037 912.69 2.46914C905.01 0.987654 908.004 3.7037 902.276 3.45679C900.584 5.92593 898.632 9.62963 896.81 9.62963L899.022 10.3704C892.905 11.6049 886.266 12.3457 879.237 11.1111L879.497 9.87654L871.948 10.3704L871.427 8.88889L860.754 9.87654L862.185 10.3704C859.712 10.6173 851.382 11.1111 846.566 10.3704L846.696 9.62963C833.289 6.91358 822.224 10.3704 806.605 10.6173L808.687 8.88889C803.351 7.16049 807.255 11.6049 800.877 10.6173L800.617 8.39506C795.02 11.1111 793.328 7.90123 789.553 6.66667L791.375 9.38272L784.086 8.88889C776.146 7.90123 779.14 5.4321 780.311 3.95062L774.844 6.17284L773.803 3.7037C769.768 6.66667 769.768 3.20988 762.869 4.69136C762.348 3.7037 764.04 3.20988 761.697 2.71605L750.243 6.17284L757.142 4.69136L756.361 8.39506C749.071 11.1111 746.598 7.90123 741.392 8.88889L744.906 7.90123C736.445 8.88889 736.185 7.40741 731.759 6.17284C733.191 6.91358 735.274 8.14815 732.02 8.39506C729.677 8.39506 730.718 6.91358 728.505 6.41975C727.854 8.88889 721.997 9.38272 716.53 7.40741C716.66 7.16049 716.79 6.66667 717.051 6.66667C715.619 6.91358 714.838 7.40741 712.365 6.41975L713.927 3.95062L708.98 5.92593C705.726 4.93827 700.91 6.66667 701.431 4.69136L703.253 4.19753C698.958 3.95062 695.183 3.95062 691.148 3.7037L679.302 3.45679L678.912 1.23457C676.569 4.19753 666.026 0 666.807 3.7037C662.381 1.72839 649.234 5.18519 651.838 0.987654C636.348 0.740741 627.887 4.69136 609.013 2.71605C602.244 -0.740741 583.891 0.246914 571.655 0C547.965 1.48148 532.606 2.71605 508.395 3.95062C493.816 -0.987654 472.078 5.67901 456.328 2.96296L452.033 4.93827C441.62 1.97531 425.74 5.67901 411.031 2.71605C407.386 3.45679 405.564 3.95062 404.783 3.95062C405.434 3.95062 406.475 4.44444 406.735 5.67901C402.57 4.93827 394.109 5.92593 394.76 3.45679L395.801 3.20988C396.452 0.740741 383.175 4.44444 378.489 2.22222L381.093 4.93827L373.152 4.44444L375.235 3.95062C340.871 9.87654 325.382 1.48148 293.101 6.66667C297.396 3.7037 286.722 8.14815 286.332 4.93827C278.131 0.987654 271.233 5.67901 264.594 6.91358C264.594 7.16049 264.464 7.16049 264.074 7.40741L252.359 6.91358C259.388 2.96296 243.898 10.1235 250.406 6.91358C219.947 3.95062 180.247 6.91358 145.102 5.67901L146.664 6.66667C137.683 6.41975 126.618 7.65432 119.85 6.17284C113.081 4.44444 105.011 8.64197 102.408 8.88889C94.9881 10.6173 88.2195 7.16049 91.4737 7.40741C87.4385 7.65432 83.6637 8.64198 79.3682 9.38272C77.4158 9.38272 75.2029 9.87654 72.8599 9.87654C71.6885 9.87654 70.3868 9.87654 69.3455 9.87654C68.174 9.87654 66.8723 9.62963 65.5707 9.1358C64.6595 8.14815 62.3165 7.65432 59.0624 7.65432C57.5004 7.65432 55.5479 7.65432 53.5954 8.14815C52.5541 8.39506 51.5127 8.64197 50.4714 8.88889C49.4301 9.38272 48.2586 9.87654 47.3475 10.3704C45.395 11.358 43.5726 12.8395 42.0107 13.8272C40.4487 14.8148 39.147 15.8025 38.2358 16.2963C36.1532 17.284 34.8515 17.037 34.8515 16.2963L34.7214 16.5432C34.3309 16.5432 34.0705 16.5432 33.68 16.5432H33.1594H32.3784C31.3371 16.5432 30.1656 16.5432 29.2544 16.7901C27.1717 17.037 25.3494 17.7778 23.6573 18.2716C21.9651 18.7654 20.5333 19.5062 19.1015 19.7531C18.711 19.7531 18.3205 19.7531 18.0601 19.7531L16.6283 20C15.587 20.2469 14.6758 20.4938 13.6345 20.7407C9.72953 21.9753 6.21505 23.4568 2.57041 24.9383C-1.2044 26.6667 -4.06805 27.6543 -7.58253 27.6543C-7.58253 27.6543 -7.32219 27.4074 -6.9317 26.9136C-15.9131 32.5926 -26.5867 34.5679 -37 38.5185C-34.0062 42.716 -31.2727 47.1605 -28.4091 51.6049C-23.9834 53.5802 -19.5578 55.5556 -14.7416 57.284C-9.92551 59.0123 -4.97921 60 0.487755 60L1.78941 59.5062L3.09107 59.0123L5.30389 58.0247L9.59936 56.2963C12.3328 55.0617 14.9362 54.321 17.2791 53.8272C17.5395 53.8272 17.7998 53.8272 18.1903 53.5802L19.3618 53.3333C20.4031 53.0864 21.3143 53.0864 22.3556 52.8395C24.1779 52.3457 25.8701 51.6049 27.4321 51.1111C28.8639 50.6173 30.1656 50.1235 31.2069 49.8765C31.7276 49.6296 32.2482 49.6296 32.7689 49.6296L35.1119 49.3827C39.4073 48.8889 43.5726 46.4198 46.4363 44.6914C47.8681 43.7037 49.1698 42.963 50.3413 42.2222C50.8619 41.9753 51.5128 41.7284 52.0334 41.4815C52.4239 41.2346 52.9446 41.2346 53.4652 40.9877C55.5479 40.4938 58.021 40.2469 60.8847 40.4938C63.7483 40.7407 66.8723 40.9877 70.3868 40.9877L128.441 44.9383L269.54 43.4568L279.563 40.4938C307.289 45.4321 342.824 39.7531 372.762 43.2099L373.413 40.7407C381.874 40.4938 381.223 42.2222 383.305 42.4691C461.665 41.9753 542.238 38.7654 612.788 41.7284C619.556 43.4568 640.253 42.4691 645.59 44.1975C657.044 42.716 668.759 41.9753 680.604 41.7284C686.462 41.4815 692.449 41.4815 698.307 41.4815C699.869 41.4815 701.04 41.4815 702.472 41.4815C703.774 41.4815 705.205 41.7284 706.637 41.7284C709.371 41.9753 712.234 42.4691 714.968 42.716L714.057 42.963L724.86 43.9506C725.381 44.1975 725.381 44.4444 724.991 44.6914C728.115 44.4444 731.759 44.6914 735.794 44.6914C737.747 44.6914 739.699 44.6914 741.782 44.6914C743.735 44.6914 745.817 44.9383 747.77 44.9383C755.97 45.4321 764.431 46.1728 771.981 46.4198L771.069 46.6667C858.02 47.1605 938.853 42.4691 1025.15 45.9259C1035.18 46.9136 1045.59 47.4074 1056.39 47.4074C1061.86 47.4074 1067.07 47.4074 1072.4 47.4074C1073.7 47.4074 1075.14 47.4074 1076.44 47.4074C1077.22 47.4074 1078.26 47.6543 1079.3 47.9012C1081.51 48.3951 1084.25 49.6296 1087.76 50.3704C1089.45 50.8642 1091.41 51.1111 1093.36 50.8642C1094.79 50.8642 1096.22 50.8642 1097.66 50.8642C1100.52 50.8642 1103.25 50.8642 1106.12 50.6173C1111.84 50.6173 1117.44 50.6173 1123.17 50.3704C1134.62 50.3704 1146.21 50.6173 1157.66 51.6049C1159.74 52.0988 1167.16 52.5926 1177.19 52.5926C1182.26 52.5926 1187.86 52.5926 1193.85 52.5926C1196.84 52.5926 1199.97 52.5926 1203.09 52.5926C1204.65 52.5926 1206.34 52.5926 1207.91 52.5926C1209.6 52.5926 1211.16 52.3457 1212.85 52.3457C1219.36 51.8519 1225.22 51.358 1230.29 51.8519C1232.77 52.0988 1235.11 52.5926 1237.19 53.3333C1238.49 53.8272 1239.8 54.321 1241.1 55.0617C1242.66 55.8025 1244.09 56.0494 1245.52 56.5432C1251.25 58.2716 1255.94 58.7654 1259.58 59.0123C1263.36 59.5062 1265.83 59.2593 1267 59.2593Z" fill="white"/>
<path d="M1402.89 40.4932H1402.5C1402.63 41.4814 1403.15 40.9873 1402.89 40.4932Z" fill="white"/>
<path d="M1212.07 19.2592C1212.33 19.2592 1212.46 19.2592 1212.72 19.2592L1210.51 18.0244L1212.07 19.2592Z" fill="white"/>
<path d="M1333.13 24.4443C1330.91 25.679 1329.87 25.679 1329.48 25.9259C1328.96 26.1729 1329.09 26.1729 1329.35 26.4198C1330.91 26.1729 1332.21 25.1851 1333.13 24.4443Z" fill="white"/>
<path d="M1436.35 24.4439L1437.26 23.7031C1435.57 23.7031 1435.57 24.197 1436.35 24.4439Z" fill="white"/>
<path d="M1035.96 70.2963C1036.61 70.5436 1037 70.2963 1035.96 70.2963V70.2963Z" fill="white"/>
<path d="M539.244 70.2961C538.984 70.2961 538.984 70.2961 538.723 70.2961C538.333 70.79 538.073 71.2838 537.682 71.5308L539.244 70.2961Z" fill="white"/>
<path d="M459.322 67.0863C459.192 67.0863 459.062 67.0863 458.802 66.8394C458.802 67.3332 458.802 67.5801 459.322 67.0863Z" fill="white"/>
<path d="M722.648 67.5801C723.299 67.8272 723.689 67.5801 723.949 67.5801C723.559 67.5801 723.168 67.5801 722.648 67.5801Z" fill="white"/>
<path d="M1182.39 67.8272C1182.39 67.8272 1182.13 67.8272 1182 67.8272C1182.26 67.8272 1182.52 68.0742 1182.91 68.0742L1182.39 67.8272Z" fill="white"/>
<path d="M1180.83 68.5679C1179.01 68.321 1181.35 67.8273 1182.13 67.8273C1180.18 67.0867 1178.23 67.0867 1176.28 67.3336C1176.28 68.0742 1179.92 68.0742 1180.83 68.5679Z" fill="white"/>
<path d="M716.139 29.3086C716.53 29.3086 717.051 29.3086 717.441 29.3086C716.79 29.0617 716.4 29.0617 716.139 29.3086Z" fill="white"/>
<path d="M1406.28 57.7042L1406.02 58.9385C1406.28 58.1979 1406.28 57.951 1406.28 57.7042Z" fill="white"/>
<path d="M537.682 71.5308L537.162 72.0249C537.292 72.0249 537.552 71.7779 537.682 71.5308Z" fill="white"/>
<path d="M385.518 66.3452C385.518 65.8513 385.258 65.6044 385.128 65.3575C384.998 65.3575 384.998 65.3575 384.868 65.3575L385.518 66.3452Z" fill="white"/>
<path d="M14.9364 50.7901C14.9364 51.0369 15.0665 51.0369 15.1966 51.2837L16.6285 50.5432C15.8476 50.5432 15.3269 50.7901 14.9364 50.7901Z" fill="white"/>
<path d="M284.249 57.4572C284.119 57.7041 283.859 57.7041 283.859 57.951C285.551 58.4448 290.107 58.4448 295.964 58.4448L296.355 56.9633L284.249 57.4572Z" fill="white"/>
<path d="M173.999 14.7409C177.774 15.7285 181.679 17.21 185.453 18.6915C176.082 17.7038 168.272 18.1976 161.373 18.1976C157.858 18.1976 154.734 18.4446 151.61 18.4446C150.048 18.4446 148.617 18.4446 147.055 18.4446C145.493 18.4446 143.931 18.4446 142.499 18.4446C136.381 18.1976 130.523 18.1976 124.276 18.1976C121.151 18.1976 117.897 18.1976 114.513 18.4446C114.123 18.4446 113.732 18.4446 113.211 18.4446L112.561 18.4446L111.65 18.4446C110.348 18.6915 109.046 18.9384 107.875 19.4322C105.401 20.4199 103.058 21.9013 100.976 23.3828C101.627 22.6421 102.147 22.1483 102.798 21.4075C101.496 22.1483 100.325 23.1359 98.7631 24.8643C97.201 26.3458 95.2485 28.8149 92.6451 31.0372C90.172 33.0125 86.6576 34.7409 80.2794 34.4939C78.7174 34.4939 76.8951 34.247 74.9426 34.0001C72.86 33.7532 70.7773 33.5063 68.4343 33.2594C63.7484 32.7656 58.5419 31.7779 52.5542 30.7902L52.5542 30.5433C50.8621 30.5433 50.8619 31.2841 47.6078 30.2964L55.8083 32.0248C50.8621 32.7656 46.5664 34.247 39.928 34.4939C38.4962 34.247 38.1057 33.5063 37.9755 33.0125L21.8351 33.5063L16.8887 31.531C11.9424 32.5186 14.1553 36.7162 1.00854 34.494C5.95483 37.21 -5.49976 36.2223 -3.93787 37.7038C-4.58863 37.4569 -6.15064 36.7162 -7.32215 36.4693C-9.27454 36.4693 -11.6177 36.7162 -14.221 36.7162C-14.7416 36.7162 -15.3923 36.7162 -15.913 36.7162C-16.4337 36.7162 -17.0845 36.7162 -17.7354 36.7162C-19.037 36.7162 -20.4688 36.7162 -21.7705 36.7162C-23.2023 36.7162 -24.7643 36.7162 -26.1962 37.21C-27.7582 37.4569 -29.1899 37.9507 -30.6218 38.6915C-33.4855 40.173 -35.8285 43.1359 -37 44.8643C-37 44.8643 -36.8698 44.6174 -36.4793 44.3705C-36.0887 44.1236 -35.6982 43.6298 -35.0475 43.1359C-33.7459 42.1483 -31.9235 40.9137 -29.8408 40.4199C-25.6755 39.4322 -20.9895 40.9137 -16.9543 42.1483C-15.1321 42.6421 -12.6589 43.1359 -10.5762 43.6298C-8.36341 44.1236 -6.15052 44.6174 -4.19812 45.1112C-0.162966 46.0989 3.35144 47.0865 5.43408 47.8273C-5.63001 47.0865 2.57043 48.0742 4.65307 49.0618L5.43408 48.3211C12.0725 49.0619 12.0726 50.7902 15.3268 51.2841C15.3268 51.0372 15.1965 51.0372 15.1965 50.7902L14.8062 51.0372C14.5458 50.7902 14.6759 50.5433 15.0664 50.2964C14.9362 49.8026 15.3267 49.5557 17.149 49.8026L16.7585 50.0495C19.4921 49.8026 24.3082 50.0495 26.3909 50.2964L26.3909 51.7779C31.3372 49.0618 59.4529 56.2223 65.9612 56.2223C69.3455 57.21 72.9901 56.9631 76.8951 56.7162C80.8 56.4693 85.0956 55.9754 89.391 54.9878C92.7753 54.0001 94.9882 52.7655 96.42 52.2717C97.8518 51.531 98.5027 51.2841 98.8932 51.2841C99.8043 51.2841 100.065 52.0248 103.189 50.0495C105.141 48.8149 105.792 48.3211 106.052 48.0742C106.313 47.8273 105.922 47.8273 105.401 47.8273C104.36 47.8273 102.798 48.568 104.23 47.3334C107.224 45.6051 110.087 44.8643 112.691 45.3581C110.478 45.6051 109.957 46.3458 110.087 46.5927C110.218 46.8396 111.129 46.8396 111.519 47.0865C111.91 47.0865 112.3 47.0865 112.691 47.0865C113.211 47.0865 113.862 47.0865 114.383 47.0865C115.554 47.0865 116.856 47.3334 118.027 47.3334C120.501 47.5804 123.104 47.8273 125.447 48.0742C130.263 48.3211 134.168 48.3211 135.47 46.8396C146.924 48.3211 147.055 49.5557 152.001 49.5557C150.309 49.0618 146.924 48.568 146.924 48.0742C151.61 49.3088 149.137 47.8273 147.185 47.3334C150.829 46.8396 160.071 47.5804 168.402 48.568C172.567 49.0618 176.472 49.5557 179.336 50.0495C182.199 50.5433 184.282 50.5433 184.672 49.8026L184.672 50.2964C186.365 48.0742 184.022 45.3581 188.708 44.8643L191.701 46.8396C193.263 47.0865 194.825 47.3334 196.387 47.5804C197.168 48.0742 197.559 48.568 197.819 48.8149C198.08 49.0618 198.21 49.3087 198.21 49.5557C198.21 49.8026 197.689 49.8026 197.689 50.0495C199.902 50.7902 202.245 51.531 204.718 52.0248C207.191 52.5186 209.794 53.0125 212.398 53.2594C217.604 53.7532 223.071 53.7532 227.887 53.7532C224.373 51.7779 220.859 49.8026 217.344 47.5804C221.509 48.3211 227.367 49.0618 232.183 49.5557C236.999 50.2964 241.295 50.5433 242.076 49.3087L247.022 51.531C263.553 55.7285 258.607 49.8026 265.115 51.0371L273.446 53.5063L265.245 53.5063C273.446 54.7408 276.83 55.4816 283.338 57.21L283.468 57.21C283.078 57.21 282.687 56.9631 282.687 56.9631L283.859 56.9631C284.9 55.7285 289.196 54.9878 294.923 54.9878C303.123 55.2347 309.632 53.5063 322.909 56.2223L326.163 53.7532L336.055 55.2347L336.055 57.21C326.293 57.21 308.07 57.9507 295.574 57.9507L295.313 58.9384C302.733 58.9384 311.063 57.9507 316.01 58.1976C318.353 58.6915 324.471 60.6668 320.045 61.9013L324.601 59.926C330.719 59.926 335.405 59.926 339.309 59.926C341.262 59.926 342.954 59.926 344.646 59.926C345.427 59.926 346.338 59.926 347.119 59.926C347.64 59.926 348.291 59.926 348.812 60.1729C351.285 60.6668 354.018 61.9013 358.574 63.6297C359.745 64.1236 361.047 64.3705 362.479 64.6174C362.87 64.6174 363.13 64.6174 363.52 64.8643C363.781 64.8643 364.171 64.8643 364.431 64.8643C365.082 64.8643 365.603 64.8643 366.254 65.1112C368.857 65.3581 371.721 65.605 374.975 65.8519L372.762 64.8643C375.365 64.6174 377.969 64.3705 380.051 64.3705C382.134 64.3705 383.826 64.6174 384.477 65.3581C399.967 65.605 415.977 66.8396 426 69.3087L428.864 67.3334C432.118 67.5803 437.064 71.0371 438.626 67.8272L445.525 66.5927C449.95 66.8396 452.684 65.3581 457.76 66.8396C458.021 66.8396 458.411 67.0865 458.672 67.0865L458.672 66.8396C468.824 67.8272 458.541 64.8643 470.126 66.0988C473.901 67.8272 474.291 63.1359 479.889 63.6297L485.486 67.0865C495.639 69.0618 497.461 65.605 512.3 65.605C519.459 66.8396 522.843 69.5556 518.157 72.2717C524.666 69.3087 521.151 70.2964 529.742 68.8149C531.044 70.0495 530.133 70.2964 528.31 71.5309C535.99 73.0124 532.996 70.2964 538.724 70.5433C540.416 68.0742 542.368 64.3704 544.19 64.3704L541.978 63.6297C548.095 62.3951 554.734 61.6544 561.763 62.889L561.503 64.1235L569.052 63.6297L569.573 65.1112L580.246 64.1235L578.815 63.6297C581.288 63.3828 589.618 62.889 594.434 63.6297L594.304 64.3704C607.711 67.0865 618.776 63.6297 634.395 63.3828L632.313 65.1112C637.649 66.8396 633.745 62.3951 640.123 63.3828L640.383 65.605C645.98 62.889 647.672 66.0988 651.447 67.3334L649.625 64.6174L656.914 65.1112C664.854 66.0988 661.86 68.568 660.689 70.0495L666.156 67.8272L667.197 70.2964C671.232 67.3334 671.232 70.7902 678.131 69.3087C678.652 70.2964 676.96 70.7902 679.303 71.284L690.757 67.8272L683.858 69.3087L684.639 65.605C691.929 62.889 694.402 66.0988 699.608 65.1112L696.094 66.0988C704.555 65.1112 704.815 66.5927 709.241 67.8272C707.809 67.0865 705.726 65.8519 708.98 65.605C711.323 65.605 710.282 67.0865 712.495 67.5803C713.146 65.1112 719.003 64.6173 724.47 66.5927C724.34 66.8396 724.21 67.3334 723.949 67.3334C725.381 67.0865 726.162 66.5927 728.635 67.5803L727.073 70.0494L732.02 68.0741C735.274 69.0618 740.09 67.3334 739.569 69.3087L737.747 69.8025C742.042 70.0494 745.817 70.0494 749.852 70.2964L761.698 70.5433L762.088 72.7655C764.431 69.8025 774.974 74.0001 774.193 70.2964C778.619 72.2717 791.766 68.8149 789.162 73.0124C804.652 73.2593 813.113 69.3087 831.987 71.284C838.756 74.7408 857.109 73.7531 869.345 74.0001C893.035 72.5186 908.394 71.284 932.605 70.0494C947.184 74.9877 968.922 68.321 984.672 71.0371L988.967 69.0618C999.38 72.0247 1015.26 68.321 1029.97 71.284C1033.61 70.5432 1035.44 70.0494 1036.22 70.0494C1035.57 70.0494 1034.53 69.5556 1034.26 68.321C1038.43 69.0618 1046.89 68.0741 1046.24 70.5432L1045.2 70.7902C1044.55 73.2593 1057.82 69.5556 1062.51 71.7778L1059.91 69.0618L1067.85 69.5556L1065.76 70.0494C1100.13 64.1235 1115.62 72.5185 1147.9 67.3334C1143.6 70.2963 1154.28 65.8519 1154.67 69.0618C1162.87 73.0124 1169.77 68.321 1176.41 67.0864C1176.41 66.8395 1176.54 66.8395 1176.93 66.5926L1188.64 67.0864C1181.61 71.0371 1197.1 63.8766 1190.59 67.0864C1221.05 70.0494 1260.75 67.0864 1295.9 68.321L1294.34 67.3333C1303.32 67.5803 1314.38 66.3457 1321.15 67.8272C1327.92 69.5556 1335.99 65.358 1338.59 65.1111C1346.01 63.3827 1352.78 66.8395 1349.53 66.5926C1353.56 66.3457 1357.34 65.358 1361.63 64.6173C1363.58 64.6173 1365.8 64.1235 1368.14 64.1235C1369.31 64.1235 1370.61 64.1235 1371.65 64.1235C1372.83 64.1235 1374.13 64.3704 1375.43 64.8642C1376.34 65.8519 1378.68 66.3457 1381.94 66.3457C1383.5 66.3457 1385.45 66.3457 1387.4 65.8519C1388.45 65.6049 1389.49 65.358 1390.53 65.1111C1391.57 64.6173 1392.74 64.1235 1393.65 63.6296C1395.61 62.642 1397.43 61.1605 1398.99 60.1728C1400.55 59.1852 1401.85 58.1975 1402.76 57.7037C1404.85 56.7161 1406.15 56.963 1406.15 57.7037L1406.28 57.4568C1406.67 57.4568 1406.93 57.4568 1407.32 57.4568L1407.84 57.4568L1408.62 57.4568C1409.66 57.4568 1410.83 57.4568 1411.75 57.2099C1413.83 56.963 1415.65 56.2222 1417.34 55.7284C1419.03 55.2346 1420.47 54.4938 1421.9 54.2469C1422.29 54.2469 1422.68 54.2469 1422.94 54.2469L1424.37 54C1425.41 53.7531 1426.32 53.5062 1427.37 53.2593C1431.27 52.0247 1434.78 50.5432 1438.43 49.0617C1442.2 47.3333 1445.07 46.3457 1448.58 46.3457C1448.58 46.3457 1448.32 46.5926 1447.93 47.0864C1456.91 41.4074 1467.59 39.4321 1478 35.4815C1475.01 31.284 1472.27 26.8395 1469.41 22.3951C1464.98 20.4198 1460.56 18.4444 1455.74 16.7161C1450.93 14.9877 1445.98 14 1440.51 14L1439.21 14.4938L1437.91 14.9877L1435.7 15.9753L1431.4 17.7037C1428.67 18.9383 1426.06 19.679 1423.72 20.1728C1423.46 20.1728 1423.2 20.1728 1422.81 20.4198L1421.64 20.6667C1420.6 20.9136 1419.69 20.9136 1418.64 21.1605C1416.82 21.6543 1415.13 22.3951 1413.57 22.8889C1412.14 23.3827 1410.83 23.8765 1409.79 24.1235C1409.27 24.3704 1408.75 24.3704 1408.23 24.3704L1405.89 24.6173C1401.59 25.1111 1397.43 27.5803 1394.56 29.3087C1393.13 30.2963 1391.83 31.037 1390.66 31.7778C1390.14 32.0247 1389.49 32.2716 1388.97 32.5185C1388.58 32.7654 1388.06 32.7654 1387.53 33.0124C1385.45 33.5062 1382.98 33.7531 1380.12 33.5062C1377.25 33.2593 1374.13 33.0124 1370.61 33.0124L1312.56 29.0617L1171.46 30.5432L1161.44 33.5062C1133.71 28.5679 1098.18 34.2469 1068.24 30.7902L1067.59 33.2593C1059.13 33.5062 1059.78 31.7778 1057.69 31.5309C979.335 32.0247 898.762 35.2346 828.212 32.2717C821.444 30.5433 800.747 31.5309 795.41 29.8025C783.956 31.284 772.241 32.0248 760.396 32.2717C754.538 32.5186 748.551 32.5186 742.693 32.5186C741.131 32.5186 739.96 32.5186 738.528 32.5186C737.226 32.5186 735.795 32.2717 734.363 32.2717C731.629 32.0248 728.766 31.5309 726.032 31.284L726.943 31.0371L716.14 30.0494C715.619 29.8025 715.619 29.5556 716.009 29.3087C712.885 29.5556 709.241 29.3087 705.206 29.3087C703.253 29.3087 701.301 29.3087 699.218 29.3087C697.265 29.3087 695.183 29.0618 693.23 29.0618C685.03 28.568 676.569 27.8272 669.019 27.5803L669.931 27.3334C582.98 26.8396 502.147 31.5309 415.847 28.0742C405.824 27.0865 395.411 26.5927 384.607 26.5927C379.14 26.5927 373.934 26.5927 368.597 26.5927C367.295 26.5927 365.863 26.5927 364.562 26.5927C363.781 26.5927 362.739 26.3458 361.698 26.0989C359.485 25.605 356.752 24.3705 353.237 23.6297C351.545 23.1359 349.593 22.889 347.64 23.1359C346.208 23.1359 344.776 23.1359 343.345 23.1359C340.481 23.1359 337.747 23.1359 334.884 23.3828C329.156 23.3828 323.559 23.3828 317.832 23.6297C306.378 23.6297 294.793 23.3828 283.338 22.3952C281.255 21.9013 273.836 21.4075 263.813 21.4075C258.737 21.4075 253.14 21.4075 247.152 21.4075C244.158 21.4075 241.034 21.4075 237.91 21.4075C236.348 21.4075 234.656 21.4075 233.094 21.4075C231.402 21.4075 229.84 21.6544 228.148 21.6544C221.64 22.1483 215.782 22.6421 210.706 22.1483C208.233 21.9013 205.889 21.4075 203.807 20.6668C202.505 20.1729 201.203 19.6791 199.902 18.9384C198.34 18.1976 196.908 17.9507 195.476 17.4569C189.749 15.7285 185.063 15.2347 181.418 14.9878C177.644 14.4939 175.17 14.7408 173.999 14.7409Z" fill="white"/>
<path d="M38.1064 33.5068L38.4961 33.5068C38.3662 32.5186 37.8466 33.0127 38.1064 33.5068Z" fill="white"/>
<path d="M228.929 54.7408C228.669 54.7408 228.538 54.7408 228.278 54.7408L230.491 55.9756L228.929 54.7408Z" fill="white"/>
<path d="M107.875 49.5557C110.087 48.321 111.129 48.321 111.519 48.0741C112.04 47.8271 111.91 47.8271 111.649 47.5802C110.087 47.8271 108.786 48.8149 107.875 49.5557Z" fill="white"/>
<path d="M4.65315 49.5561L3.74208 50.2969C5.43418 50.2969 5.43412 49.803 4.65315 49.5561Z" fill="white"/>
</mask>
<g mask="url(#mask0)">
<rect x="-2" y="-26" width="1440" height="124" fill="white"/>
</g>
</svg>
